<svg width="150" height="140" viewBox="0 0 150 140" fill="none" xmlns="http://www.w3.org/2000/svg">
<path d="M142.58 53.0523C141.98 52.2177 141.659 52.1321 141.659 52.1321C141.659 52.1321 141.766 52.4959 142.002 53.4375C142.194 54.3577 142.601 55.9413 141.938 58.2525C141.124 60.6708 139.755 61.8692 139.049 62.6182C138.706 62.9606 138.428 63.2174 138.235 63.3886C138.064 63.5598 138 63.624 138 63.624C138 63.624 138.107 63.6026 138.342 63.5384C138.578 63.4742 138.963 63.3458 139.498 63.0676C140.012 62.7894 140.696 62.3614 141.403 61.6552C142.109 60.949 142.879 59.9217 143.307 58.4879C143.735 57.0541 143.628 55.8557 143.414 54.9783C143.222 54.0795 142.879 53.4589 142.58 53.0523Z" fill="#E27E25"/>
<path d="M85.2267 43.9782C85.4835 44.3206 85.8901 44.7272 86.5749 45.1124C87.2597 45.4762 88.2441 45.8187 89.5281 45.7545C90.8977 45.6689 91.8821 45.1552 92.5241 44.663C93.1662 44.1494 93.5086 43.6358 93.6798 43.2506C93.851 42.844 93.8938 42.5658 93.8938 42.3946C93.8938 42.2234 93.8724 42.1378 93.8724 42.1378C93.8724 42.1378 93.8082 42.1806 93.6798 42.309C93.5514 42.4374 93.3588 42.6514 93.0806 42.9082C92.5028 43.4004 91.4327 44.3634 89.3997 44.5132C88.3939 44.556 87.6021 44.3206 87.0029 44.1066C86.4037 43.8712 85.9757 43.6358 85.6547 43.4646C85.0341 43.0794 84.7773 42.9938 84.7773 42.9938C84.7773 42.9938 84.7773 43.058 84.8415 43.2292C84.8629 43.379 84.9699 43.6358 85.2267 43.9782Z" fill="#E27E25"/>
<path d="M37.0544 55.6842C37.1828 55.7698 37.3968 55.9196 37.7606 56.048C38.4454 56.3048 39.8578 56.6258 41.8052 55.941C43.8597 55.1706 44.5873 53.908 44.8013 53.266C44.9297 52.9236 44.9297 52.6668 44.9297 52.517C44.9297 52.3672 44.9083 52.303 44.9083 52.303C44.9083 52.303 44.8441 52.3458 44.7371 52.4528C44.6087 52.5812 44.4375 52.7524 44.2021 52.9664C43.6885 53.4158 42.8967 54.2076 41.2274 54.8282C39.5368 55.406 38.4454 55.3846 37.8034 55.4274C37.14 55.4702 36.9046 55.5558 36.9046 55.5558C36.9046 55.5558 36.926 55.5772 37.0544 55.6842Z" fill="#E27E25"/>
<path d="M67.4437 46.3335C68.5137 46.8685 69.5623 46.9327 70.3327 46.8471C71.1031 46.7615 71.6595 46.5261 72.0233 46.3121C72.3871 46.0981 72.5797 45.9055 72.6867 45.7771C72.7937 45.6487 72.8151 45.5845 72.8151 45.5845C72.8151 45.5845 72.5155 45.6487 71.7451 45.7557C71.0175 45.8199 69.6693 46.0125 68.0857 45.2421C66.5449 44.3861 66.074 43.4017 65.7316 42.9095C65.4106 42.3744 65.2394 42.2032 65.2394 42.2032C65.2394 42.2032 65.0468 42.4386 65.0896 43.1663C65.1324 43.8297 65.4534 45.2635 67.4437 46.3335Z" fill="#E27E25"/>
<path d="M101.042 72.955C101.919 73.49 102.711 73.2974 103.011 73.0834C103.332 72.8694 103.353 72.6554 103.353 72.6554C103.353 72.5912 102.711 72.4628 101.791 71.9064C101.342 71.5854 101.085 71.4142 100.828 71.2644C100.593 71.1146 100.379 71.0718 100.379 71.0718C100.379 71.0718 100.207 71.1788 100.165 71.4998C100.1 71.8208 100.229 72.4628 101.042 72.955Z" fill="#E27E25"/>
<path d="M103.909 70.3437C104.38 70.2153 104.444 69.9799 104.444 70.0013C104.444 69.9799 104.273 69.8943 103.952 69.7231C103.652 69.5519 103.224 69.2951 102.775 68.7387C102.368 68.1609 102.24 67.8185 102.09 67.5403C101.962 67.2621 101.833 67.1123 101.833 67.1123C101.855 67.1123 101.619 67.1337 101.384 67.4975C101.149 67.8185 100.956 68.6317 101.641 69.5091C102.433 70.4293 103.481 70.4935 103.909 70.3437Z" fill="#E27E25"/>
<path d="M75.4688 131.57C74.5272 131.591 74.2276 131.72 74.2276 131.72C74.2276 131.72 74.5272 131.934 75.5116 132.212C76.496 132.49 78.1867 132.854 80.8831 132.726C83.7507 132.554 85.4627 131.891 86.4043 131.463C87.3459 131.014 87.6028 130.735 87.6028 130.735C87.6028 130.735 87.2175 130.735 86.1689 130.885C85.1203 131.014 83.4511 131.356 80.7333 131.506C78.0369 131.591 76.4318 131.527 75.4688 131.57Z" fill="#E27E25"/>
<path d="M62.4996 91.9146C62.1786 91.8932 61.986 91.9574 61.986 91.9574C61.986 91.9574 61.9432 92.1286 62.1144 92.4282C62.2856 92.7278 62.7136 93.1773 63.6552 93.4127C64.6824 93.6481 65.3458 93.3485 65.6454 93.1345C65.9664 92.8991 65.9878 92.6851 65.9878 92.6851C65.9878 92.6209 65.3458 92.4925 63.9548 92.1929C63.27 92.0216 62.842 91.9146 62.4996 91.9146Z" fill="#E27E25"/>
<path d="M64.1699 90.9086C65.7749 91.144 66.7593 90.609 67.1659 90.2666C67.5939 89.9028 67.5939 89.646 67.5939 89.646C67.5939 89.646 67.3585 89.646 66.8449 89.7102C66.3313 89.753 65.5395 89.8814 64.3625 89.6888C63.1855 89.4748 62.5649 89.1752 62.0941 89.0468C61.6661 88.897 61.4307 88.9184 61.4307 88.9184C61.4307 88.9184 61.3879 89.1324 61.6875 89.5604C61.9871 89.967 62.6933 90.6518 64.1699 90.9086Z" fill="#E27E25"/>
<path d="M65.154 88.4696C66.545 88.384 67.5294 87.8062 68.1286 87.2712C68.7492 86.7362 69.0489 86.1798 69.1987 85.7946C69.3485 85.388 69.3484 85.0884 69.327 84.9172C69.3056 84.746 69.2842 84.6604 69.2842 84.6604C69.2842 84.6604 69.2201 84.7246 69.113 84.853C69.006 84.9814 68.8348 85.2168 68.5566 85.495C68.2784 85.7732 67.8932 86.137 67.3368 86.4794C66.759 86.8218 65.9886 87.1642 64.9828 87.2284C63.977 87.2712 63.1852 87.0358 62.586 86.8004C61.9868 86.565 61.5802 86.3082 61.2592 86.1156C60.981 85.9444 60.767 85.7946 60.6172 85.709C60.4888 85.6234 60.4032 85.602 60.4032 85.602C60.4032 85.602 60.4032 85.6662 60.446 85.8374C60.4888 86.0086 60.5744 86.2654 60.8312 86.6078C61.0666 86.9502 61.4732 87.3782 62.158 87.7848C62.8642 88.17 63.87 88.5338 65.154 88.4696Z" fill="#E27E25"/>
<path d="M75.1478 72.8465C76.282 72.9107 77.0952 72.3971 77.5018 71.9691C77.9512 71.5197 78.0796 71.0489 78.101 70.7279C78.1224 70.0645 77.8228 69.8933 77.8442 69.8933C77.8228 69.8933 77.6944 70.1073 77.352 70.4925C77.0096 70.8349 76.282 71.4983 75.1906 71.4341C74.0992 71.2843 73.5428 70.6637 73.2218 70.3855C72.9008 70.0431 72.6868 69.8933 72.6868 69.8933C72.7082 69.8933 72.4514 70.0645 72.4728 70.6851C72.4942 70.9847 72.6226 71.4127 73.0078 71.8621C73.4144 72.2901 74.0778 72.7823 75.1478 72.8465Z" fill="#E27E25"/>
<path d="M95.0921 133.26C93.6583 133.517 91.7537 133.817 89.2713 134.138C86.7675 134.437 83.6644 134.737 79.8338 134.822C72.1725 134.929 67.6785 134.309 65.0891 134.095C63.7837 133.988 62.9704 133.881 62.4568 133.859C61.9432 133.838 61.772 133.838 61.772 133.838C61.772 133.838 62.0074 133.924 62.5638 134.095C63.1202 134.266 64.0405 134.523 65.3887 134.822C68.1065 135.4 72.6861 136.278 80.005 136.149C87.8161 135.957 92.5669 134.694 95.3061 133.924C96.6971 133.517 97.5746 133.175 98.131 132.961C98.6874 132.747 98.9014 132.64 98.9014 132.64C98.9014 132.64 98.6446 132.661 98.0454 132.768C97.4676 132.832 96.5045 133.003 95.0921 133.26Z" fill="#E27E25"/>
<path d="M55.3524 49.3071C54.6676 48.7721 54.3252 48.4083 54.0042 48.1943C53.7046 47.9803 53.4906 47.9161 53.4906 47.9161C53.4906 47.9161 53.3408 48.0659 53.3408 48.4725C53.3408 48.8791 53.512 49.6068 54.4322 50.313C55.4594 51.062 56.401 51.0192 56.8505 50.9122C57.0859 50.848 57.2357 50.7624 57.3213 50.6982C57.4069 50.634 57.4497 50.5912 57.4497 50.5912C57.4497 50.5912 57.2999 50.4628 56.9361 50.2702C56.5937 50.0776 56.0372 49.8422 55.3524 49.3071Z" fill="#E27E25"/>
<path d="M32.3468 60.0488C31.9402 60.3056 31.2982 60.755 30.1212 60.969C28.9442 61.1616 28.2594 61.0332 27.7886 61.0118C27.5532 61.0118 27.382 60.9904 27.2536 60.9904C27.1252 60.9904 27.0824 61.0118 27.0824 61.0118C27.1038 60.9904 27.0824 61.2472 27.5104 61.6111C27.917 61.9749 28.9228 62.5099 30.5064 62.2103C32.197 61.8679 32.8604 60.8834 32.9889 60.3698C33.1387 59.8134 32.9675 59.5994 32.9675 59.6208C32.9461 59.6422 32.7534 59.7706 32.3468 60.0488Z" fill="#E27E25"/>
<path d="M19.4641 67.4553C19.0361 67.6265 18.4155 67.9475 17.3455 68.0117C16.2755 68.0545 15.6977 67.8833 15.2697 67.8191C15.0557 67.7977 14.9059 67.7549 14.7775 67.7549C14.6705 67.7549 14.6063 67.7549 14.6063 67.7549C14.6277 67.7549 14.5635 67.9689 14.8845 68.3755C15.1841 68.7608 16.0187 69.3814 17.5167 69.2958C19.1217 69.1674 19.8493 68.3327 20.0419 67.8833C20.2559 67.3911 20.0847 67.1771 20.1061 67.1771C20.0847 67.1557 19.8707 67.2627 19.4641 67.4553Z" fill="#E27E25"/>
<path d="M104.359 86.0505C103.396 88.3617 102.305 91.2721 101.363 94.9102C99.4156 102.721 99.758 107.793 99.9292 110.746C100.015 112.223 100.186 113.207 100.293 113.828C100.4 114.449 100.464 114.684 100.464 114.684C100.464 114.684 100.486 114.427 100.528 113.807C100.55 113.165 100.614 112.18 100.678 110.682C100.892 107.707 100.914 102.721 102.861 95.0386C103.845 91.2079 104.915 88.2119 105.771 85.8579C106.627 83.5039 107.269 81.749 107.74 80.465C108.66 77.897 108.767 77.1908 108.767 77.1908C108.767 77.1908 108.19 78.0682 106.863 80.679C106.157 81.9844 105.322 83.7179 104.359 86.0505Z" fill="#E27E25"/>
<path d="M130.275 67.1994C129.569 67.3278 128.905 67.3064 128.37 67.1994C127.835 67.0924 127.429 66.8998 127.151 66.75C126.894 66.5788 126.744 66.4932 126.744 66.4932C126.765 66.4504 126.744 67.1994 127.878 68.034C128.435 68.4192 129.291 68.783 130.382 68.8258C131.431 68.8686 132.864 68.569 133.87 67.4776L132.094 66.2578C131.666 66.75 130.96 67.0496 130.275 67.1994Z" fill="#E27E25"/>
<path d="M139.862 44.9848C140.333 46.119 140.14 46.975 140.098 47.51C140.055 47.7668 140.033 47.9594 140.012 48.1092C139.991 48.2376 140.012 48.3018 140.012 48.3018C140.012 48.3018 140.076 48.2804 140.205 48.2162C140.333 48.152 140.526 48.0236 140.761 47.7668C140.996 47.51 141.253 47.1462 141.403 46.5898C141.553 46.0334 141.596 45.2844 141.189 44.4284C140.782 43.5938 140.14 43.1016 139.605 42.8234C139.049 42.5452 138.6 42.4596 138.257 42.4596C137.915 42.4596 137.701 42.5024 137.572 42.5452C137.444 42.588 137.401 42.6308 137.401 42.6308C137.401 42.6308 137.615 42.7806 138.086 43.1016C138.578 43.4226 139.37 43.9148 139.862 44.9848Z" fill="#E27E25"/>
<path d="M133.827 54.9365C133.827 54.9365 133.763 54.9365 133.613 54.9365C133.463 54.9579 133.228 54.9579 132.907 54.9579C132.586 54.9579 132.179 54.9365 131.709 54.8081C131.238 54.6797 130.66 54.4657 130.232 53.9949C129.804 53.5455 129.633 53.0319 129.547 52.6467C129.462 52.2401 129.462 51.9191 129.44 51.6623C129.44 51.4269 129.44 51.2557 129.44 51.1059C129.44 50.9775 129.419 50.9347 129.419 50.9347C129.44 50.9347 129.119 50.9775 128.713 51.5339C128.52 51.8121 128.327 52.2401 128.306 52.8179C128.306 53.3957 128.456 54.1661 129.141 54.8723C129.911 55.6427 130.853 55.8567 131.537 55.8781C132.244 55.8995 132.757 55.7283 133.1 55.5571C133.784 55.2361 133.806 54.9151 133.827 54.9365Z" fill="#E27E25"/>
<path d="M132.179 33.0432C131.623 33.086 131.494 33.2786 131.494 33.2786C131.494 33.2786 131.537 33.3214 131.623 33.3856C131.73 33.4498 131.879 33.5568 132.051 33.6852C132.436 33.9634 133.014 34.3272 133.677 35.0976C134.362 35.9322 134.597 36.5528 134.811 36.938C134.918 37.1306 135.004 37.2804 135.068 37.3874C135.132 37.4944 135.175 37.5372 135.175 37.5372C135.175 37.5372 135.218 37.5158 135.303 37.4088C135.368 37.3232 135.496 37.1734 135.56 36.9166C135.71 36.4458 135.796 35.44 134.833 34.2844C133.805 33.1502 132.693 33.0004 132.179 33.0432Z" fill="#E27E25"/>
<path d="M125.373 42.0741C125.159 41.753 124.988 41.6032 124.817 41.432C124.646 41.2608 124.475 41.1324 124.475 41.1324C124.475 41.1324 124.282 41.1324 124.068 41.3892C123.854 41.6246 123.683 42.2239 124.218 42.8873C124.796 43.5721 125.609 43.5721 125.908 43.4223C126.251 43.2725 126.294 43.0585 126.294 43.0585C126.294 43.0585 126.165 42.9301 125.973 42.7589C125.823 42.5877 125.609 42.3951 125.373 42.0741Z" fill="#E27E25"/>
<path d="M110.543 44.6647C109.815 44.1511 109.559 43.7659 109.302 43.5091C109.173 43.3807 109.109 43.2737 109.024 43.1881C108.959 43.1239 108.895 43.0811 108.895 43.0811C108.917 43.0811 108.681 43.1881 108.553 43.6375C108.424 44.0655 108.553 45.0285 109.708 45.7561C110.95 46.5265 112.127 46.2269 112.533 45.9273C112.983 45.6063 112.94 45.3495 112.961 45.3709C112.961 45.3495 112.726 45.3495 112.319 45.3067C111.934 45.2425 111.313 45.1569 110.543 44.6647Z" fill="#E27E25"/>
<path d="M112.127 33.2993C110.779 34.7117 110.865 35.9743 111.036 36.5307C111.1 36.8303 111.271 37.0015 111.336 37.0871C111.421 37.1941 111.485 37.2155 111.485 37.2155C111.507 37.2155 111.592 36.9801 111.785 36.4451C111.999 35.9315 112.299 35.0969 113.283 34.1125C114.353 33.0853 115.295 32.7429 115.851 32.4647C116.429 32.2079 116.686 32.0795 116.686 32.0581C116.686 32.0795 116.472 31.8655 115.723 31.8227C114.995 31.8013 113.518 31.9297 112.127 33.2993Z" fill="#E27E25"/>
<path d="M111.571 20.8875C112.084 21.1657 112.534 21.2513 112.855 21.2513C113.197 21.2513 113.411 21.1871 113.54 21.1229C113.668 21.0587 113.711 21.0159 113.711 21.0159C113.711 21.0159 113.668 20.9731 113.561 20.9089C113.454 20.8447 113.283 20.7377 113.09 20.6093C112.705 20.3311 111.977 19.8603 111.742 18.9187C111.571 17.9771 111.935 17.3565 112.042 16.9713C112.213 16.5861 112.234 16.3721 112.234 16.3721C112.234 16.3721 112.17 16.3721 112.042 16.3721C111.913 16.3935 111.699 16.4363 111.442 16.5861C111.186 16.7359 110.865 16.9927 110.586 17.4207C110.33 17.8487 110.116 18.4693 110.308 19.2611C110.522 20.0957 111.079 20.6093 111.571 20.8875Z" fill="#E27E25"/>
<path d="M95.092 13.4197C95.2632 14.3613 94.9208 15.0247 94.771 15.4313C94.6854 15.6239 94.6212 15.7951 94.557 15.9235C94.5142 16.0305 94.4928 16.0947 94.4928 16.0947C94.4928 16.0947 94.557 16.0947 94.6854 16.0947C94.8138 16.0733 95.0278 16.0305 95.306 15.8807C95.5842 15.7309 95.9266 15.4741 96.2048 15.0247C96.483 14.5753 96.7184 13.9119 96.5044 13.0987C96.2904 12.2855 95.734 11.7719 95.2846 11.4937C94.8138 11.2155 94.3858 11.1299 94.0862 11.1085C93.7866 11.0871 93.594 11.1513 93.487 11.1941C93.38 11.2369 93.3372 11.2797 93.3372 11.2797C93.3372 11.2797 93.5298 11.4295 93.8936 11.7291C94.2574 12.0287 94.8566 12.5423 95.092 13.4197Z" fill="#E27E25"/>
<path d="M83.8147 8.1765C84.842 8.86131 85.2058 9.50331 85.484 9.90992C85.7408 10.3165 85.8906 10.5305 85.912 10.5305C85.8906 10.5305 86.126 10.3807 86.2116 9.80291C86.2972 9.24651 86.1046 8.0695 84.628 7.10649C83.1085 6.16488 81.8031 6.44308 81.3109 6.72129C81.0327 6.84969 80.9043 6.99949 80.8401 7.08509C80.7759 7.17069 80.7545 7.23489 80.7545 7.23489C80.7545 7.25629 81.0113 7.27769 81.5249 7.34189C82.0385 7.40609 82.8303 7.55589 83.8147 8.1765Z" fill="#E27E25"/>
<path d="M42.0624 25.6822C43.218 25.4682 43.6888 24.8262 43.7958 24.4624C43.9242 24.0772 43.7958 23.906 43.7958 23.906C43.7958 23.906 43.6032 23.9274 43.2608 24.0344C42.9184 24.12 42.4476 24.3126 41.72 24.4196C40.9924 24.5266 40.5644 24.5694 40.222 24.655C39.901 24.7406 39.7084 24.8476 39.7084 24.8476C39.7084 24.8476 39.7298 25.0402 40.0294 25.297C40.3076 25.511 40.9924 25.8534 42.0624 25.6822Z" fill="#E27E25"/>
<path d="M30.5069 23.5201C31.1917 23.9695 31.9193 24.0551 32.4329 24.0123C32.9679 23.9695 33.3317 23.7983 33.5671 23.6485C33.8025 23.4773 33.9095 23.3275 33.9737 23.2205C34.0379 23.1135 34.0379 23.0493 34.0379 23.0493C34.0379 23.0493 33.8025 23.0279 33.3317 23.0065C32.8823 22.9637 32.1119 22.9423 31.3629 22.4287C30.6567 21.8937 30.4213 21.3373 30.1859 21.0377C29.9933 20.7167 29.8221 20.5669 29.8221 20.5669C29.8221 20.5669 29.7793 20.5883 29.6937 20.6739C29.6081 20.7595 29.5225 20.9093 29.4369 21.1447C29.3727 21.3801 29.3299 21.7225 29.4583 22.1505C29.5867 22.5785 29.8649 23.0921 30.5069 23.5201Z" fill="#E27E25"/>
<path d="M59.9754 13.9964C60.0824 14.0606 60.1252 14.082 60.1252 14.082C60.1466 14.082 60.1894 13.868 60.2964 13.3972C60.4034 12.9478 60.5746 12.2202 61.238 11.3214C61.987 10.3797 62.6718 9.97314 63.0998 9.67354C63.5492 9.37394 63.7418 9.22413 63.7418 9.20273C63.7418 9.22413 63.5492 9.03153 62.8858 9.05293C62.2652 9.05293 60.9812 9.30973 59.9754 10.6579C59.0123 12.0276 59.312 13.1404 59.5902 13.5684C59.7186 13.8252 59.8898 13.9322 59.9754 13.9964Z" fill="#E27E25"/>
<path d="M73.3284 39.6972C72.6222 39.2906 72.2798 38.9909 71.9802 38.7983C71.702 38.6057 71.488 38.5201 71.488 38.5201C71.5094 38.5201 71.3168 38.6485 71.3168 39.0765C71.3168 39.4832 71.5522 40.2536 72.6222 40.8314C73.7992 41.4306 74.7622 41.1524 75.1474 40.917C75.554 40.6602 75.5754 40.4034 75.5754 40.4248C75.5754 40.4248 75.3614 40.3606 74.9762 40.275C74.6124 40.1894 74.0346 40.0824 73.3284 39.6972Z" fill="#E27E25"/>
<path d="M88.929 27.4144C89.3998 27.6712 90.2344 28.142 90.7052 29.1478C91.1118 30.2393 90.7694 31.0739 90.641 31.5447C90.5554 31.7801 90.4912 31.9727 90.4484 32.1011C90.4056 32.2295 90.3842 32.2937 90.3842 32.2937C90.3842 32.2937 90.4484 32.2937 90.5982 32.2509C90.748 32.2081 90.962 32.1225 91.2616 31.9085C91.5398 31.6945 91.8822 31.3521 92.0962 30.8171C92.3316 30.2821 92.46 29.4903 92.0748 28.6128C91.6682 27.7354 90.962 27.2646 90.4056 27.0078C89.8278 26.751 89.3356 26.7296 89.0146 26.751C88.6722 26.7724 88.4796 26.858 88.3512 26.9222C88.2442 26.9864 88.2014 27.0292 88.2014 27.0292C88.2014 27.0292 88.2656 27.072 88.394 27.1148C88.501 27.2004 88.6936 27.3074 88.929 27.4144Z" fill="#E27E25"/>
<path d="M70.1398 25.3383C70.2682 25.2527 70.4608 25.1029 70.739 24.9317C71.274 24.6107 72.2798 24.0115 73.7779 24.1613C74.5483 24.2683 75.1475 24.5893 75.5755 24.8889C76.0035 25.1885 76.3031 25.4881 76.5171 25.7449C76.7097 25.9803 76.8595 26.1729 76.9665 26.3013C77.0735 26.4297 77.1163 26.4725 77.1163 26.4725C77.0949 26.4725 77.3089 26.2371 77.1805 25.4881C77.0949 25.1243 76.9237 24.6321 76.4315 24.0971C75.9607 23.5835 75.1475 23.0057 73.9063 22.8559C72.665 22.7275 71.7234 23.0913 71.1242 23.4765C70.525 23.8617 70.2254 24.2897 70.0542 24.5893C69.9044 24.9103 69.883 25.1243 69.883 25.2741C69.883 25.4025 69.9258 25.4667 69.9258 25.4667C69.9258 25.4667 70.0328 25.4239 70.1398 25.3383Z" fill="#E27E25"/>
<path d="M56.2946 41.7739C56.9366 41.6455 57.065 41.3887 57.065 41.4101C57.065 41.3887 56.8296 41.3245 56.3588 41.1105C55.888 40.8965 55.1604 40.5755 54.4327 39.6981C53.7479 38.7993 53.6409 38.1787 53.5125 37.7721C53.4269 37.5581 53.4269 37.4297 53.3627 37.3227C53.3199 37.2157 53.2771 37.1729 53.2771 37.1729C53.2985 37.1729 53.0203 37.2585 52.7635 37.7507C52.5067 38.2215 52.3141 39.2915 53.2557 40.4899C54.3257 41.7739 55.6954 41.8809 56.2946 41.7739Z" fill="#E27E25"/>
<path d="M63.7407 35.5888C63.7621 35.5674 63.5695 35.4176 63.1843 35.0538C62.8205 34.69 62.1999 34.1122 61.7933 32.978C61.4509 31.8438 61.5579 31.159 61.5365 30.7095C61.5365 30.4741 61.5579 30.3243 61.5365 30.2173C61.5151 30.1103 61.4937 30.0461 61.4937 30.0461C61.5151 30.0461 61.2155 30.0889 60.8303 30.5383C60.4451 30.9663 59.9101 31.9508 60.4023 33.4274C60.9587 34.9896 62.1999 35.5246 62.8205 35.653C63.5053 35.76 63.7621 35.5674 63.7407 35.5888Z" fill="#E27E25"/>
<path d="M30.5708 53.3306C30.7206 53.0524 30.7634 52.817 30.7634 52.6886C30.7634 52.5602 30.7634 52.496 30.7634 52.496C30.7634 52.496 30.6992 52.5174 30.5708 52.5816C30.4424 52.6672 30.2498 52.7742 29.993 52.924C29.458 53.2236 28.6448 53.7586 27.1682 54.1224C25.6916 54.4434 24.7714 54.3792 24.1936 54.422C23.6158 54.4434 23.3804 54.529 23.3804 54.529C23.3804 54.529 23.4232 54.5718 23.5088 54.6788C23.6158 54.7644 23.787 54.9356 24.0652 55.064C24.643 55.3636 25.82 55.7702 27.5962 55.3636C29.5008 54.8928 30.2712 53.887 30.5708 53.3306Z" fill="#E27E25"/>
<path d="M29.5004 37.0666C27.9168 36.7884 26.6756 37.2378 25.9052 37.6872C25.092 38.158 24.7068 38.693 24.4714 39.0782C24.0648 39.8914 24.2574 40.1696 24.236 40.1696C24.236 40.1696 24.3002 40.1054 24.45 39.977C24.5784 39.8486 24.8138 39.6346 25.1562 39.3778C25.4986 39.121 25.9908 38.8214 26.6756 38.5646C27.3604 38.3292 28.2592 38.158 29.265 38.3506C30.335 38.5646 31.0626 39.121 31.5548 39.6346C32.047 40.1482 32.3252 40.619 32.5178 40.9828C32.689 41.368 32.796 41.6463 32.8602 41.8175C32.9244 41.9887 32.9672 42.0743 32.9672 42.0743C32.9244 42.0743 33.2454 41.8175 33.2454 40.833C33.224 40.3622 33.0742 39.6774 32.5606 38.9498C32.0256 38.2436 31.084 37.3662 29.5004 37.0666Z" fill="#E27E25"/>
<path d="M11.867 45.8616C11.9526 45.9686 12.0168 45.99 12.0168 45.99C12.0168 45.99 12.0596 45.9258 12.1024 45.7974C12.1452 45.6476 12.2308 45.455 12.3164 45.1982C12.509 44.6632 12.7658 43.7858 13.579 42.6302C14.4778 41.4103 15.2696 40.8325 15.719 40.3831C15.9544 40.1691 16.1256 40.0193 16.2326 39.9123C16.3396 39.8053 16.361 39.7411 16.361 39.7411C16.361 39.7411 16.2968 39.7197 16.1256 39.7197C15.9758 39.7197 15.719 39.7197 15.3552 39.8053C14.6704 39.9765 13.365 40.4473 12.2736 41.9667C11.225 43.529 11.3748 44.706 11.5674 45.2624C11.6316 45.6048 11.7814 45.776 11.867 45.8616Z" fill="#E27E25"/>
<path d="M15.9328 59.2153C15.997 59.1083 16.0184 59.0655 16.0184 59.0655C16.0184 59.0655 15.783 59.0441 15.2908 58.9799C14.8414 58.9157 14.0282 58.8301 13.322 58.2309C12.6586 57.6103 12.4874 57.0111 12.3162 56.6687C12.1664 56.3049 12.038 56.1337 12.038 56.1337C12.038 56.1337 11.9952 56.1551 11.8882 56.2407C11.8026 56.3263 11.6742 56.4547 11.5672 56.6901C11.4602 56.9255 11.3746 57.2679 11.4602 57.7173C11.5244 58.1453 11.7598 58.7231 12.359 59.2153C13.001 59.7503 13.7286 59.9001 14.2636 59.9001C14.82 59.9001 15.2052 59.7717 15.462 59.6219C15.7402 59.4507 15.8686 59.3223 15.9328 59.2153Z" fill="#E27E25"/>
<path d="M90.5554 88.4062C89.1002 91.8516 88.5866 93.9702 88.3512 95.19C88.1372 96.4313 88.2442 96.7951 88.2442 96.7951C88.2442 96.7951 88.5438 96.3885 89.143 95.1687C89.7422 93.9702 90.6196 91.9586 91.9678 88.7914C93.423 85.4102 94.279 83.2915 94.707 81.9647C95.1565 80.6593 95.1779 80.1671 95.1779 80.1671C95.1779 80.1671 94.814 80.5309 94.0222 81.7293C93.2518 82.9277 92.032 84.9822 90.5554 88.4062Z" fill="#E27E25"/>
<path d="M91.7752 81.7075C95.0495 74.1318 95.0709 71.9918 95.0709 71.9918C95.0709 71.9918 93.637 73.7252 90.3414 81.3223C87.0458 88.9194 87.2598 90.5244 87.2598 90.5244C87.2598 90.5244 88.6936 88.791 91.7752 81.7075Z" fill="#E27E25"/>
<path d="M149.385 47.5311C149.984 46.1401 150.155 44.7277 149.856 43.2511C149.214 40.1266 146.86 37.8796 143.735 36.5528C145.811 29.1269 137.379 23.1991 129.525 25.9811C129.632 25.7671 129.718 25.5317 129.782 25.2963C130.638 23.7341 130.51 22.2147 129.44 20.6097C129.119 20.1388 125.267 16.7576 125.245 16.9716C125.288 14.8958 124.197 12.82 122.378 11.4932C121.928 11.1722 121.436 10.894 120.88 10.7228C120.259 10.5302 119.617 10.5088 118.954 10.4874C117.798 10.4446 116.621 10.4018 115.487 10.6586C112.084 11.4932 112.833 9.67416 109.966 8.77535C109.302 8.56135 103.267 8.94655 104.081 10.1236C101.941 7.06333 98.5593 5.03031 95.4563 6.50693C94.6217 4.28131 92.8027 2.63349 90.1063 1.75609C85.8904 0.386473 81.268 3.0187 77.6728 1.60628C72.3013 -0.512335 66.5018 -1.04734 62.4144 3.2113C55.1597 0.686076 47.6483 4.02451 46.0861 10.8512C42.127 9.80256 37.9968 10.7014 34.53 12.7772C28.6021 8.66835 19.9136 13.9542 22.8883 19.8392C18.7794 19.9462 16.8748 24.0123 18.2872 27.4363C17.8806 27.6075 17.4954 27.7787 17.1316 27.9713C14.906 29.1055 13.0656 30.5393 11.9742 32.5938C11.6104 33.2786 10.6259 34.8622 10.4547 36.1034C5.0191 38.1578 1.70207 42.8659 2.83628 48.1945C3.17868 49.7995 4.09889 50.7197 3.34988 52.1107C2.70788 53.3305 1.40246 54.2936 0.803259 55.6418C-0.22395 58.0386 -0.288151 60.6708 0.739058 63.089C1.98027 65.9781 4.8051 67.5617 8.31473 67.9683C9.17073 70.6005 10.7757 72.6977 13.729 73.6393C19.507 75.4797 25.3921 72.6763 26.3337 67.6045C27.3609 68.0539 28.3881 68.3107 29.3939 68.4177C40.1582 74.1957 53.5119 86.244 55.5878 97.4149C56.6364 103.15 57.7492 108.885 57.2356 114.706C56.9788 117.66 56.508 120.591 56.187 123.545C55.7804 127.268 53.5547 133.56 57.3426 136.534C61.6654 139.959 72.7721 139.98 78.272 139.959C85.3982 139.916 93.3163 139.638 100.057 137.476C110.073 134.287 104.166 122.689 104.166 115.477C104.166 99.3624 110.308 82.7558 117.113 70.4293C119.275 72.9545 122.463 71.6277 123.576 71.7989C124.068 71.8845 124.561 72.0985 125.053 72.3553C126.422 73.4039 128.413 73.8747 129.996 73.1899C134.747 72.7619 142.216 70.6219 139.926 67.1979C143.179 66.1065 145.897 64.0734 147.266 61.1416C148.015 59.558 148.293 57.6748 148.058 55.9628C147.865 54.4434 146.175 52.4103 146.646 50.9551C146.967 49.9493 148.871 48.7723 149.385 47.5311ZM112.127 13.5262C112.255 14.1896 113.197 14.211 113.668 13.89C118.59 10.466 124.432 13.8472 124.454 18.9618C125.053 18.6194 125.845 19.0474 126.337 19.5182C128.199 21.2945 128.712 23.1777 128.199 25.5103C128.156 25.7029 128.241 25.8741 128.348 26.0025C128.199 26.2807 128.027 26.5589 127.835 26.8157C127.813 26.8157 127.813 26.8371 127.792 26.8371C124.133 23.2633 118.333 21.6369 113.111 23.8411C110.501 24.9539 108.403 26.9227 107.184 29.2125C106.627 30.2611 106.499 31.3954 106.135 32.4654C105.857 29.8759 104.551 27.2009 102.668 25.5959C104.402 24.6543 105.215 22.5785 104.123 20.9949C104.145 20.9735 104.145 20.9735 104.166 20.9735C107.098 18.6194 106.606 14.2966 104.573 10.894C107.804 7.96214 111.549 10.3376 112.127 13.5262ZM50.6015 15.5164C47.1775 15.2168 49.3817 8.49715 50.7299 7.12753C53.6189 4.15291 58.3912 3.6821 62.2218 5.50112C62.8424 5.80072 63.5272 5.60812 63.891 5.11592C67.1011 0.900077 73.8849 0.514875 77.8011 4.21711C78.0365 4.43111 78.4646 4.53811 78.7856 4.45251C83.6006 3.0615 92.8455 1.32808 93.7443 8.19754C93.8513 8.96795 94.8785 9.52436 95.6061 8.88235C99.2013 5.67232 102.54 11.322 103.439 13.1838C104.487 15.388 105.236 17.9988 103.182 20.1175C102.775 19.989 102.283 20.3315 102.561 20.7167C103.16 21.5085 103.631 22.7069 103.203 23.6271C102.925 24.2263 102.433 24.6757 101.834 24.9967C100.678 24.2691 99.3511 23.9481 97.9387 24.2691C96.7403 18.3626 89.5285 15.4308 82.9586 15.9872C80.3692 16.2012 78.1008 17.0144 75.5969 17.5066C73.3285 17.956 73.3285 17.2284 71.3383 16.5008C64.2976 13.9542 58.9262 18.9618 55.6734 23.7127C54.4321 23.5415 53.1695 23.6057 51.9711 23.8839C51.0509 23.6913 50.1307 23.4559 49.2319 23.1349C44.2671 21.2303 44.2456 15.067 50.6015 15.5164ZM24.2579 21.6583C25.1139 22.1505 26.0127 21.1875 25.5847 20.4813C22.6743 15.6876 28.9231 10.4874 33.674 14.7674C33.995 15.067 34.6584 15.174 35.0436 14.9172C38.4676 12.713 41.8488 12.178 45.7437 12.606C45.5083 13.569 45.2301 13.7616 44.1814 14.7888C42.5122 16.4366 42.3196 18.7692 43.732 20.5455C44.2885 21.2517 45.0803 22.1719 45.9577 22.9423C45.8935 23.0065 45.8507 23.0921 45.8721 23.2205C45.9577 23.7769 45.9577 24.3333 46.0861 24.8897C46.1289 25.1037 46.1931 25.3391 46.3001 25.5745C46.0861 26.0025 45.8935 26.4091 45.6367 26.6445C44.7593 27.4791 43.4538 27.8215 42.1698 27.9927C38.4248 25.7243 32.8179 26.7301 29.0729 29.2767C27.1683 25.7671 23.0167 25.7029 19.1646 27.1153C19.1218 26.8371 19.079 26.5589 19.0148 26.2807C18.2016 23.7555 19.9564 22.2361 24.2579 21.6583ZM26.0341 65.4859C25.4349 65.1435 24.5789 65.5929 24.6003 66.2135C24.7287 69.8943 21.2404 72.1627 17.3456 72.2483C15.9332 72.2911 14.1356 72.2911 13.0228 71.4351C12.445 70.9857 10.2621 66.5559 10.9898 66.4061C7.11632 67.2835 3.11448 64.6941 2.23707 61.4412C1.25266 57.8888 3.26428 54.529 6.38871 52.3675C6.75251 52.1107 6.81671 51.5115 6.55991 51.1691C2.53667 45.9047 5.1689 39.5702 11.9956 37.7298C12.6804 37.5372 13.1084 36.8096 12.6804 36.2318C11.91 35.1832 14.7134 31.5666 15.5052 30.9031C16.4254 30.1327 17.6666 29.3623 19.0362 28.7417C19.0576 28.7631 19.0576 28.7845 19.079 28.8059C19.2074 28.9771 19.4856 28.8701 19.4428 28.6775C19.4428 28.6347 19.4428 28.6133 19.4214 28.5705C22.6743 27.2009 26.4621 26.9655 27.9601 30.6249C28.1527 31.1171 28.8589 31.3525 29.3297 30.9459C33.995 26.7729 39.345 28.2281 44.0102 31.1171C41.9772 36.4244 44.3955 42.4379 49.6599 45.5623C48.6755 47.6595 49.4887 49.6497 51.0723 51.1263C50.6443 51.6185 50.6871 52.3247 51.1793 52.7955C51.1579 52.7741 51.1793 52.8383 51.2221 52.8597C51.2221 52.9239 51.2435 53.0309 51.2221 53.0523C51.2007 53.2449 51.1365 53.4803 51.0509 53.6515C50.8583 54.0368 50.4945 54.2722 50.1949 54.5932C48.9965 54.529 47.7981 53.8228 46.0219 52.8169C46.0433 54.4862 46.3857 55.2138 44.3526 56.4336C42.769 57.3966 40.415 58.0386 38.5104 57.632C37.8684 57.5036 37.312 57.9744 37.4618 58.5522C39.0454 64.3088 31.4269 68.4605 26.0341 65.4859ZM49.7669 56.4122C49.5743 56.1982 49.4031 56.0056 49.2319 55.7916C49.3175 55.8344 49.3817 55.8558 49.4673 55.8772C49.5529 56.0698 49.6599 56.241 49.7669 56.4122ZM39.2808 59.3012C40.7146 59.4296 42.0628 59.237 43.2398 58.7448C44.2671 62.0404 45.1231 65.0793 44.7165 68.5889C42.5336 67.2193 40.3936 65.6999 38.1466 64.373C39.0668 62.9178 39.4948 61.1844 39.2808 59.3012ZM112.555 74.6023C104.658 90.3315 100.978 108.115 102.561 125.278C102.797 127.91 104.295 131.356 102.625 133.731C102.476 133.945 102.304 134.159 102.09 134.352C100.421 135.957 97.2539 136.492 94.9641 136.898C89.7853 137.861 84.371 137.968 79.0852 137.968C75.4043 137.968 71.3383 138.075 67.7431 137.412C65.4746 136.984 59.5468 135.743 58.0702 134.33C57.6636 133.924 57.5994 133.346 57.578 132.811C57.1928 124.336 59.29 114.664 59.183 106.21C58.9904 92.1933 47.4771 74.6665 32.2187 68.3107C33.2031 68.1181 34.1448 67.7757 35.0008 67.3049C39.0668 70.1725 41.8916 71.3923 41.8916 71.3923C41.8916 71.3923 40.094 69.2737 36.349 66.3847C36.7556 66.0423 37.1194 65.6785 37.4618 65.2933C39.8372 67.0909 42.4266 68.7173 44.7807 70.5149C47.2417 72.3767 47.8623 62.4042 44.9091 57.6962C45.1445 57.4822 45.3799 57.2682 45.5939 57.0328C49.3603 66.4275 52.2279 71.7347 52.2279 71.7347C52.2279 71.7347 50.7085 65.6999 46.8779 55.8344L46.3001 56.0056C46.5141 55.6204 46.7067 55.2352 46.8565 54.8072C50.9011 61.2486 54.8601 67.4975 57.2142 74.6665C58.1344 77.4486 59.2686 86.0086 65.0466 83.4834C70.2041 81.215 68.1925 71.1783 67.6575 67.4547C66.6089 60.1358 63.9552 52.3889 59.3328 46.2257C59.0546 45.8619 58.2842 46.0759 58.4768 46.5467C59.2472 48.3871 60.0604 50.2061 60.8308 52.0251C60.8094 52.0465 60.788 52.0679 60.7666 52.0893C60.467 52.9667 56.5508 52.0893 55.973 51.9181C55.9302 51.8967 55.8874 51.8967 55.8446 51.8753C55.7162 51.7897 55.5878 51.7469 55.4379 51.7469C52.8057 50.9337 49.1249 48.8579 51.7357 45.9047C52.1851 45.3911 52.1209 44.8133 51.5217 44.4281C42.769 38.9282 44.0102 23.2419 57.3212 25.8313C57.15 25.8099 59.4184 22.2147 59.718 21.8723C60.681 20.7167 61.8152 19.9034 63.2704 19.1972C66.4376 17.6778 70.0971 17.4424 72.7079 19.9462C72.9647 20.2031 73.4783 20.3315 73.8635 20.2031C80.8614 17.8276 95.9271 15.2596 95.4777 25.9597C95.4349 26.7729 96.6547 27.5005 97.4679 26.9655C100.55 24.9753 105.258 31.802 103.717 35.5042C103.588 35.654 103.46 35.8038 103.353 35.975C103.246 36.1462 103.139 36.3388 103.053 36.51C102.775 36.7882 102.454 37.045 102.048 37.2376C101.662 37.4302 101.384 37.9224 101.555 38.3076C102.219 39.8698 102.369 41.4106 102.005 42.8445C101.727 43.9145 101.363 45.0915 100.336 45.4125C99.5009 45.6693 97.5749 45.2627 97.2111 44.4923C95.0925 46.2257 91.3903 47.7665 88.4584 46.9105C88.3942 46.8891 88.3514 46.8891 88.2872 46.9105C86.1472 46.9105 84.157 46.1187 82.7874 44.1713C82.2952 43.4865 81.0754 43.5935 80.8186 44.4067C80.6046 46.1401 79.1922 46.9105 76.6027 46.7393C76.3459 46.1829 75.6825 46.0117 75.1475 46.3969C69.4551 50.5913 61.5798 46.5467 61.9008 40.3192C61.9008 40.2336 61.751 40.2122 61.7296 40.2978C60.0176 45.3911 63.6556 49.2217 68.2139 49.9279C69.1769 56.0484 70.8675 62.1474 73.1359 67.9683C73.5211 68.9741 74.8693 69.0383 75.5327 68.2465C80.6474 62.2116 85.12 55.7916 84.4138 48.1303C85.441 48.6439 86.5538 48.9863 87.7094 49.0933C86.6608 54.7644 86.5752 60.628 86.2328 66.3419C85.8262 73.2113 85.2698 80.2734 85.4196 87.1429C85.441 87.8277 86.4896 87.7849 86.5752 87.1429C87.1744 82.9484 89.7425 79.2676 91.5615 75.4584C93.4447 71.5207 94.6217 67.3905 96.2053 63.3672C98.3667 57.9102 100.785 52.3675 102.583 46.7393C102.925 46.3327 103.225 45.9261 103.481 45.4981C103.481 46.0973 103.481 46.6751 103.524 47.2315C101.919 50.3773 101.277 53.1379 100.999 55.0426C100.849 56.1126 100.828 56.9258 100.806 57.4822C100.806 58.0386 100.806 58.3168 100.806 58.3168C100.806 58.3168 100.892 58.0386 101.042 57.5036C101.213 56.9686 101.427 56.1768 101.769 55.171C102.283 53.673 103.032 51.6827 104.188 49.3715C104.423 49.7139 104.723 50.0349 105.129 50.3345C105.664 50.7197 106.199 50.9123 106.734 51.0193C104.787 56.2196 104.209 61.9334 103.481 67.3477C103.417 67.8399 104.273 68.1609 104.616 67.7543C109.73 61.9548 114.716 56.1554 118.269 49.4999C118.697 49.8423 119.168 50.1633 119.66 50.4415C116.279 54.2294 114.096 57.5892 112.748 59.9646C111.357 62.447 110.779 63.838 110.779 63.838C110.779 63.838 111.72 62.5754 113.432 60.307C115.144 58.0814 117.67 54.8928 121.158 51.1263C121.372 51.2119 121.565 51.2761 121.779 51.3403C120.43 54.208 119.724 57.6106 121.95 60.2C118.098 64.6298 115.102 69.5733 112.555 74.6023ZM60.8094 62.0618C62.5428 64.8867 63.9552 67.9041 65.7314 70.7289C65.817 71.5849 65.9026 72.4623 65.9668 73.3183C66.0738 74.7093 66.9085 78.3902 65.7314 80.145C63.677 71.9273 59.0118 61.8264 51.7357 56.0912C53.1481 55.8344 54.5391 54.9356 55.4165 53.8228C57.1714 56.5834 59.0974 59.2798 60.8094 62.0618ZM56.7006 53.5017C58.5838 53.8014 60.7238 53.9084 61.323 53.0737C62.6926 56.4122 63.9338 59.7934 64.64 63.3244C64.7042 63.6668 64.7684 64.0092 64.8326 64.3516C62.6712 60.414 59.7822 56.6262 56.7006 53.5017ZM63.5914 81.0866C63.4844 81.0866 63.3988 81.0866 63.2704 81.0652C60.4456 80.68 61.4086 77.8124 57.3212 68.5461C56.4866 66.6415 55.5236 64.7582 54.4749 62.9392C55.6092 64.4372 56.7006 65.9567 57.6422 67.5403C60.2102 71.8845 62.0078 76.4214 63.5914 81.0866ZM90.3203 49.3929C92.7171 48.5155 94.6859 47.7023 96.9757 46.6751C97.4037 47.0817 98.1099 47.2101 98.7305 47.3171C93.6801 51.4473 90.1491 57.953 88.3942 64.1804C88.651 60.6066 88.9293 57.0542 88.9507 53.4803C88.9721 51.4259 88.2658 50.1633 90.3203 49.3929ZM93.6801 57.632C95.4135 54.6146 97.7675 51.9823 99.8006 49.1575C99.3511 50.4201 98.4951 52.0893 98.3239 52.5815C97.1683 55.813 96.0127 59.0444 94.6859 62.2116C92.6315 67.1551 89.1861 72.4623 87.4954 77.7482C87.6666 75.3728 87.8164 72.9973 87.9662 70.6433C88.009 70.6005 88.0732 70.5577 88.0946 70.4721C89.6783 66.1279 91.3475 61.7408 93.6801 57.632ZM77.63 50.8481C77.4587 50.2917 77.3089 49.7353 77.0735 49.2431C77.5657 49.3929 78.1008 49.4357 78.7214 49.3501C80.4762 49.1147 81.5034 47.9377 82.1668 46.5895C82.445 46.8463 82.7446 47.0817 83.0442 47.3171C82.4878 51.5971 81.5462 56.0484 79.449 59.9646C79.2778 57.9744 78.807 56.0056 78.0794 54.101C78.1222 53.0095 77.9724 51.9181 77.63 50.8481ZM77.9296 62.4042C77.0949 63.5598 76.1105 64.6512 74.9763 65.6571C73.8849 62.875 72.7935 60.093 71.7235 57.311C71.6593 57.0756 71.6165 56.8616 71.5737 56.6262C71.1029 54.4434 70.7391 52.1749 70.0115 50.0349C71.3811 49.9921 72.7507 49.6711 74.0775 49.0077C75.8751 53.2663 77.1377 57.3752 77.7156 61.9334C77.737 62.1474 77.8226 62.2758 77.9296 62.4042ZM107.483 51.1477C108.831 51.2119 110.18 50.8695 111.442 51.1691C112.812 51.5115 113.197 52.3889 114.738 52.1107C111.785 56.4764 108.81 60.8634 105.429 64.9723C106.456 60.4354 107.483 55.7488 107.483 51.1477ZM144.955 51.0621C144.827 51.1477 144.762 51.3831 144.827 51.5115C147.373 57.525 144.891 63.7096 137.615 65.7213C136.844 65.9353 136.395 66.9197 137.101 67.4333C136.587 69.5733 135.325 70.7931 133.292 71.1141C132.5 71.3067 131.708 71.4565 130.874 71.5421C130.232 71.6277 129.611 71.6705 129.012 71.6919C127.214 71.3709 126.315 70.5791 125.395 68.9313C125.031 68.2465 123.619 68.3749 123.491 69.1453C123.469 69.2737 123.384 69.3379 123.255 69.4021C122.57 68.4177 120.174 67.9255 119.767 65.7855C120.709 64.159 121.629 62.554 122.592 60.9276C124.325 62.5112 126.38 62.875 128.734 62.4042C129.483 62.2544 130.339 62.0832 131.002 61.7194C131.601 61.377 132.307 59.986 132.735 59.8362C128.584 61.2914 124.261 62.0404 123.105 57.311C122.528 55.0212 122.699 53.9512 123.705 52.2605C124.197 51.7041 124.796 51.2119 125.481 50.7411C125.909 50.4629 125.866 49.6497 125.16 49.7353C124.475 49.7995 123.833 49.7781 123.191 49.7139C121.757 48.7295 119.446 47.7023 118.89 47.0175C117.37 45.1343 117.071 42.6305 117.606 40.5118C117.627 40.469 117.541 40.4048 117.499 40.4476C116.407 41.6246 115.722 43.0799 115.722 44.6207C115.722 45.9475 117.22 47.4241 117.178 48.4727C117.006 51.5757 112.79 49.2431 111.25 49.8851C108.96 50.8481 107.012 49.9707 105.386 47.2529C105.429 47.1673 105.472 47.0817 105.536 46.9961L105.407 46.9319C105.429 46.3755 105.472 45.8191 105.514 45.2627C105.493 44.3425 105.3 43.6363 105.151 42.7161C104.851 40.9612 104.295 39.2278 104.83 37.6228C105.215 37.1734 105.514 36.6598 105.728 36.1034C105.814 36.0178 105.9 35.9108 105.985 35.8252C106.542 35.2902 107.654 34.9692 108.061 34.263C108.639 33.3 108.296 31.8662 108.746 30.7747C109.516 28.8701 111.121 27.1153 113.069 26.0453C117.648 23.5415 123.448 25.0181 126.615 28.6347C127.086 29.1697 127.771 29.2767 128.391 28.8273C135.132 24.1193 143.864 29.7475 141.702 36.7882C141.552 37.259 141.895 37.6656 142.366 37.8368C148.593 39.9982 150.262 47.2101 144.955 51.0621Z" fill="#E27E25"/>
</svg>
