<svg width="107" height="140" viewBox="0 0 107 140" fill="none" xmlns="http://www.w3.org/2000/svg">
<path d="M98.4694 42.9097C93.9545 36.9447 86.7207 35.1486 79.8494 36.5163C76.1419 32.9735 69.1718 31.0292 64.1955 33.1548C60.6362 16.611 65.8927 6.92205 73.7856 10.5472C77.8227 12.4092 82.8155 17.8139 85.9627 11.6182C90.972 1.73152 83.5734 2.22585 78.6301 1.30309C71.5446 -0.015136 60.5868 -2.53625 53.9298 7.16921C47.6023 16.3803 50.7825 28.6399 46.4159 36.3186C42.4612 32.0343 32.7227 33.2372 28.7845 36.8953C17.2995 37.4061 5.20471 46.1723 1.43128 63.8201C-8.12588 108.492 32.7557 154.58 47.7341 135.581C47.1244 136.356 59.7794 144.051 67.1285 137.147C71.5116 138.069 76.3397 135.977 80.1296 133.044C93.6744 134.395 97.8268 114.737 100.282 105.608C103.611 93.2825 113.827 63.161 98.4694 42.9097ZM77.6414 37.093C75.6476 37.7027 73.7032 38.5925 71.8906 39.7295C70.902 39.8943 69.9298 40.1579 68.9905 40.5039C70.4241 38.5925 71.973 37.472 73.6702 36.4009C71.5611 36.5328 68.9081 37.851 67.1615 40.3062C66.9802 40.2073 66.8154 40.1085 66.6671 40.0096C66.9473 38.576 67.3427 37.5874 67.7217 36.6481C67.0626 37.0601 66.3211 37.8345 65.7444 38.8397C65.3819 38.0323 65.0523 36.747 64.5085 34.4895C68.0842 34.0776 72.0225 33.3031 77.6414 37.093ZM85.6661 3.75829C86.2923 6.90557 85.6826 11.5194 82.6177 13.1672C82.3046 10.5801 80.7557 7.66355 85.6661 3.75829ZM45.5755 37.6203C45.0811 38.3124 44.5209 38.9715 43.9112 39.5977C42.7248 37.884 40.9287 37.0106 39.5116 36.9118C40.8628 37.884 42.0163 38.9385 42.8072 40.6852C42.7248 40.7511 42.6589 40.8335 42.5765 40.8994C41.2912 39.8778 33.7444 37.1095 31.1903 36.9118C38.5065 33.4185 41.9339 36.2691 45.5755 37.6203ZM4.0183 93.9252C-3.08366 64.3639 7.70935 32.7923 38.3252 39.9766C38.523 40.092 38.7207 40.2073 38.9184 40.3392C24.8628 38.1641 7.82469 50.3412 7.52809 77.4144C7.49513 80.4133 7.24797 101.653 11.2191 112.957C9.25827 107.338 5.41892 99.7583 4.0183 93.9252ZM29.8062 135.252C19.4086 129.814 10.6424 110.255 9.50543 93.8263C8.69802 82.2918 5.53427 56.2238 24.8298 45.4143C34.9802 39.7295 38.6713 44.3433 43.8288 42.4648C27.664 56.7346 29.2624 113.814 45.8391 133.538C40.6486 137.064 34.0245 136.24 29.8062 132.714C32.0636 135.647 37.6826 138.448 43.8783 136.257C39.8082 138.63 33.8597 137.377 29.8062 135.252ZM44.7845 127.886C34.5683 111.062 32.5085 81.2372 37.6661 61.6121C40.1543 52.1703 43.3674 40.2073 55.6764 39.9931C56.5003 39.9766 54.2428 39.0209 51.1615 39.2516C53.8309 31.8366 54.6713 24.817 54.1604 17.4844C53.5343 25.3113 52.282 31.9519 49.3324 39.5317C48.4426 39.746 47.6023 40.0426 46.7784 40.4545C51.3098 35.5441 51.112 24.6687 51.7876 19.7253C53.4025 7.69651 61.4107 1.30309 67.5899 1.15479C72.6651 1.03945 77.8391 3.98898 82.9143 3.85716C80.7557 5.70268 79.3551 8.94882 79.8824 11.6018C74.8072 9.19599 66.2387 3.39578 62.284 16.7758C60.0925 24.1414 62.1522 35.4452 64.8216 40.2403C63.9318 39.7624 62.9432 39.4329 61.8886 39.2516C59.6311 30.5678 56.4509 5.57086 70.902 6.88909C73.2583 7.11978 75.3839 7.84481 77.8391 8.71813C75.5652 7.6965 73.4231 6.8067 70.9679 6.41123C57.0935 4.36798 56.9452 26.0528 60.1913 39.0868C59.6476 39.0868 59.0873 39.1198 58.4941 39.1857C57.7197 33.9622 56.5992 30.9633 56.5992 30.9633C56.5992 30.9633 56.2696 34.3247 56.9452 39.8778L57.1759 39.8448C57.2089 40.1579 57.489 40.4875 57.9174 40.4215C81.9916 37.2908 77.1965 115.297 67.2768 133.62C64.7392 138.333 53.2542 141.843 44.7845 127.886ZM68.7763 135.153C68.9576 134.889 69.1224 134.593 69.3036 134.279C73.6043 133.67 77.1141 131.396 79.0255 128.792C76.5044 130.572 73.8515 132.006 70.144 132.615C77.7403 115.973 83.8041 61.299 68.0183 42.7944C78.4653 38.9715 88.9947 44.0137 93.971 53.6038C99.0791 63.4411 97.9586 74.7944 96.0307 85.2578C94.0698 95.9355 91.3839 106.514 87.8247 116.796C85.5508 123.421 82.6836 133.587 68.7763 135.153ZM82.1069 131.363C87.1986 126.551 87.8577 122.152 90.1481 115.478C91.9112 110.321 93.4766 105.114 94.8443 99.8407C99.178 83.0663 105.077 60.0137 90.7578 46.0075C86.9349 42.2835 81.2665 39.68 75.6641 39.4823C98.7331 30.4689 109.493 55.68 102.062 90.1188C96.8711 114.094 92.4221 130.209 82.1069 131.363Z" fill="#E27E25"/>
<path d="M54.012 134.493C49.942 132.252 47.7669 127.144 46.2839 122.909C45.7896 121.459 45.1964 119.927 44.7185 118.279C44.4713 117.455 44.2077 116.615 43.9276 115.742C43.6804 114.868 43.4497 113.962 43.1861 113.039C35.5733 86.7406 41.4888 59.1072 41.7031 56.9486C36.2324 76.5243 37.0069 97.5501 41.8678 113.665C42.873 117.389 44.0594 120.652 45.1469 123.536C50.2056 136.8 58.4446 138.168 63.1078 134.823C63.1078 134.823 62.976 134.889 62.6794 135.054C60.6361 136.191 57.2582 136.306 54.012 134.493Z" fill="#E27E25"/>
<path d="M42.0988 132.83C24.6487 97.1554 30.4984 80.1338 30.8279 66.3912C24.5663 90.2841 30.5643 117.258 42.0988 132.83Z" fill="#E27E25"/>
<path d="M72.4511 66.0115C72.0062 71.8117 71.9403 79.2432 70.9022 93.5295C69.8476 107.42 68.3811 119.68 68.3646 122.349C73.0443 102.642 73.7858 71.9435 72.4511 66.0115Z" fill="#E27E25"/>
<path d="M79.0424 71.9606C79.9981 110.387 74.7252 120.867 73.4399 128.76C82.7005 105.839 81.2834 79.079 79.0424 71.9606Z" fill="#E27E25"/>
<path d="M82.0414 96.1334C81.5965 98.8852 82.371 101.027 79.2237 116.632C79.1413 117.06 78.8117 118.543 78.7953 118.988C82.0908 113.056 83.3432 99.1489 82.0414 96.1334Z" fill="#E27E25"/>
<path d="M33.3485 119.862C33.0684 119.055 33.2661 119.598 32.2774 117.011C26.7079 101.753 27.021 93.7282 26.3784 91.7179C25.5215 102.231 29.9046 115.298 33.3485 119.862Z" fill="#E27E25"/>
<path d="M12.6859 103.12C13.9547 114.408 21.485 126.222 26.9063 130.325C13.8888 112.579 14.5479 106.696 12.6859 103.12Z" fill="#E27E25"/>
<path d="M48.591 124.178C51.1615 132.302 56.9947 134.922 60.3232 134.164C59.5158 133.983 54.9679 133.604 51.6064 128.281C50.4695 126.469 49.8598 124.87 49.3654 123.601C48.9041 122.333 48.558 121.377 48.2944 120.685C47.7836 119.301 47.5364 118.955 47.5364 118.955C47.5364 118.955 47.5529 119.515 47.833 121.064C47.9648 121.838 48.179 122.876 48.591 124.178Z" fill="#E27E25"/>
</svg>
