<svg width="105" height="140" viewBox="0 0 105 140" fill="none" xmlns="http://www.w3.org/2000/svg">
<path d="M55.0366 33.4944C55.0366 33.372 54.8518 33.372 54.8313 33.4944C54.1949 49.3699 61.7705 60.2256 71.6454 65.3474C74.1707 66.633 55.1803 54.859 55.0366 33.4944Z" fill="#E27E25"/>
<path d="M65.9586 46.1041C61.1956 38.7377 59.779 29.9634 59.8817 21.3522C59.9638 13.5777 61.1751 5.70119 61.2572 4.82375C61.3804 3.55861 61.7294 1.55887 60.8055 0.477376C59.7174 -0.787767 57.4386 0.803864 56.2684 1.33441C54.5644 2.10982 52.922 2.96685 51.3411 3.94631C43.1907 9.02729 44.8126 9.78229 44.8331 14.1491C45.0795 55.8376 25.3295 52.3074 11.7796 66.0811C3.93712 74.0393 -0.661624 84.4461 0.0774604 95.5671C1.55563 117.727 20.5255 131.46 31.7554 131.603C33.8084 131.624 35.6767 132.726 37.6681 133.358C35.6767 134.358 34.7939 133.868 33.4184 134.378C32.4329 134.705 31.8786 135.623 32.0018 136.439C32.125 137.052 32.474 137.133 32.4534 137.154C32.474 137.154 32.2071 136.929 32.2687 136.439C32.6382 133.787 36.0873 136.705 40.0291 133.848C41.0145 133.95 42.0205 133.95 43.0265 133.95C43.1086 134.113 43.0059 134.338 42.9033 134.501C41.9589 136.011 38.7151 135.113 37.9145 137.664C37.7091 138.215 37.8118 138.908 38.3045 139.337C38.8588 139.561 39.3721 139.255 39.4542 138.97C39.29 139.174 38.8383 139.255 38.5304 139.051C38.2224 138.48 38.633 137.398 39.988 137.113C40.8708 136.888 44.8742 137.011 44.792 134.011C45.7775 134.052 46.5166 134.154 47.7484 134.419C48.2 134.827 47.851 135.684 47.6047 136.215C46.496 138.5 47.2762 139.725 48.2 139.949C49.1855 140.194 49.4524 139.48 49.4524 139.48C49.4524 139.459 49.3087 139.663 48.9597 139.663C48.3027 139.684 47.7689 139.031 48.2206 138.011C48.5901 137.133 49.6166 136.215 49.6166 134.848C50.8895 135.154 52.1623 135.378 53.5584 135.337C54.2154 137.256 56.33 137.46 53.1478 139.908C53.8253 139.827 54.667 139.541 55.3035 139.01C56.7816 137.725 55.5703 136.031 55.2213 135.174C57.028 134.827 57.9724 134.378 60.1075 134.317L60.785 134.644C60.8261 134.705 60.8671 134.787 60.8876 134.868C61.5651 134.644 61.0314 136.847 61.0724 137.562C61.0929 139.072 62.6738 140.112 63.9877 139.48C63.9877 139.48 63.7824 139.5 63.4128 139.398C60.7029 138.623 63.5566 136.378 62.5916 134.215C63.2281 134.174 63.844 134.134 64.4804 134.093C64.7268 134.603 65.1168 134.97 65.589 135.276C67.5805 136.501 70.4752 135.052 71.2759 136.99C71.4196 137.337 71.358 137.562 71.3785 137.562C71.358 137.562 72.056 136.419 70.5984 135.297C69.4282 134.358 67.5189 134.664 66.5334 133.889L66.5129 133.868C84.3946 131.767 99.3611 120.85 103.939 102.729C111.597 72.3252 75.6077 60.9797 65.9586 46.1041ZM49.555 6.92552C50.4173 6.21133 51.3206 5.53795 52.265 4.92578C53.5173 4.10956 54.8518 3.39537 56.2068 2.80361C56.9048 2.49752 57.8492 1.94657 58.6088 1.84455C58.8552 1.82414 59.0194 1.84455 59.1221 1.90576C59.3479 2.0486 59.1836 2.39549 58.732 2.74239C55.4472 5.33389 51.6902 6.72147 47.8716 8.35391C48.4464 8.10904 49.0623 7.33363 49.555 6.92552ZM77.3528 128.726C97.0822 116.32 100.839 89.5679 81.4588 72.2028C81.4177 72.162 81.3562 72.2232 81.3972 72.264C91.5391 81.875 94.5365 97.1995 89.6503 109.994C84.7847 122.768 75.5667 126.441 72.6103 128.787C71.1938 129.91 70.1057 130.583 68.2169 130.909C67.4573 131.032 62.8175 130.726 62.5916 131.052C68.3811 123.339 73.8832 104.097 65.5274 81.8342C58.0956 62.0408 56.9048 60.7961 57.2128 61.6735C59.4711 68.3665 74.9097 102.219 62.5711 125.951C61.1956 128.604 59.7174 133.154 54.8518 132.766L54.7902 132.44C54.5849 132.481 54.4001 132.583 54.2154 132.685C41.9589 131.093 36.9085 118.931 34.9171 106.79C31.8786 88.2415 39.1873 70.2643 45.757 53.2665C45.7775 53.1848 45.6543 53.1236 45.6132 53.2052C37.4012 70.8356 29.1686 90.0168 32.9462 109.831C34.4654 117.85 38.0582 126.645 44.3609 131.42C43.1907 131.46 42.0821 131.399 40.994 131.256L40.3781 130.889C40.3165 130.971 40.2549 131.052 40.1933 131.134C26.007 128.563 5.78483 98.5055 21.6341 67.9992C21.6957 67.8972 21.5314 67.8156 21.4698 67.8972C6.72922 89.1598 15.0439 117.34 31.3859 129.604C12.3955 124.747 -0.990105 105.974 3.19804 86.3438C7.96102 64.0202 26.0275 59.1841 32.7409 54.2459C45.1821 45.1042 48.0769 25.8414 46.7835 10.6393C49.3292 10.272 51.8955 8.88445 54.2564 7.5785C53.6405 10.9046 53.62 14.2919 53.9074 16.0468C54.1948 13.741 54.5028 10.8638 55.4677 6.8643C55.8372 6.63984 56.2068 6.39498 56.5763 6.15011C55.673 12.0677 55.7141 18.0669 56.1863 21.2706C56.2889 16.5161 56.8227 10.7005 57.8081 5.23186C58.6704 4.53807 59.1836 4.47686 59.738 3.5178C49.5345 65.0609 92.7093 54.9397 101.476 88.7517C105.664 104.974 94.3517 122.339 77.3528 128.726Z" fill="#E27E25"/>
<path d="M46.8659 44.1452C46.7838 44.6145 46.7633 44.8186 46.7633 44.8186C50.7051 37.0645 52.5117 19.4545 51.1157 15.3938C49.6991 28.1064 52.3475 14.0878 46.8659 44.1452Z" fill="#E27E25"/>
<path d="M49.0413 129.461C35.512 111.504 37.9756 100.955 37.0928 96.3225C34.855 110.586 42.4306 124.441 49.0413 129.461Z" fill="#E27E25"/>
<path d="M19.9096 101.137C19.807 108.769 26.1919 120.318 31.2833 123.563C31.2833 123.563 31.2012 123.42 30.9343 123.093C21.203 110.238 21.1825 103.422 19.9096 101.137Z" fill="#E27E25"/>
<path d="M6.8317 102.831C6.68799 110.259 13.7093 120.421 19.7862 122.563C17.2815 120.013 12.149 117.36 7.55025 104.831C7.4476 104.505 7.01647 103.137 6.8317 102.831Z" fill="#E27E25"/>
<path d="M64.4395 99.3616C64.3369 107.85 65.0349 111.462 60.313 125.766C60.1898 126.195 60.1487 126.378 60.1487 126.378C64.8912 119.645 66.8415 104.565 64.4395 99.3616Z" fill="#E27E25"/>
<path d="M70.7629 127.297C83.2452 121.257 89.0142 107.198 88.9115 102.627C81.7055 120.788 73.863 124.318 70.7629 127.297Z" fill="#E27E25"/>
<path d="M93.1615 115.524C95.8305 113.871 99.9775 105.321 99.3411 103.322C99.1769 103.526 93.3258 114.871 93.1615 115.524Z" fill="#E27E25"/>
<path d="M48.0771 50.3088C48.0771 50.3088 42.1645 70.1838 42.1439 70.3267C45.2235 66.572 48.8983 53.2064 48.0771 50.3088Z" fill="#E27E25"/>
<path d="M53.64 51.5115C53.3936 50.2055 53.2294 49.8586 53.2294 49.8586C52.2234 54.103 54.8718 65.4077 57.5612 68.4277C57.4997 68.0604 57.1506 66.8564 57.048 66.4891C54.0301 55.6946 54.4817 55.5722 53.64 51.5115Z" fill="#E27E25"/>
<path d="M55.3036 122.728C55.7964 117.32 55.201 84.7325 54.1539 80.4065C53.6407 86.2221 54.2771 116.912 55.3036 122.728Z" fill="#E27E25"/>
<path d="M31.879 66.4072C33.4393 64.9584 39.4341 54.7149 39.393 52.9192C37.7711 54.4292 32.1459 64.1218 31.879 66.4072Z" fill="#E27E25"/>
<path d="M74.109 63.938C74.109 63.938 70.5778 60.6119 69.1202 58.959C68.7096 58.4897 65.24 54.0617 64.9115 53.8577C65.4042 57.4082 71.1116 63.5095 74.109 63.938Z" fill="#E27E25"/>
<path d="M71.1118 81.4465C76.7576 103.28 72.3641 111.198 70.927 118.564C78.5231 103.036 73.986 85.8133 71.1118 81.4465Z" fill="#E27E25"/>
<path d="M32.3298 111.708C28.0596 88.0585 32.0424 88.9155 32.2888 78.6311C27.341 90.5683 29.1271 105.464 32.3298 111.708Z" fill="#E27E25"/>
</svg>
