<svg width="130" height="140" viewBox="0 0 130 140" fill="none" xmlns="http://www.w3.org/2000/svg">
<path d="M82.6145 57.8393C81.6688 54.4134 80.746 52.519 80.1877 51.4526C79.6181 50.3976 79.3902 50.1594 79.3902 50.1594C79.3902 50.1594 79.4244 50.2729 79.5041 50.5338C79.5953 50.7947 79.732 51.2031 79.9371 51.793C80.3472 52.9954 81.0764 54.9466 81.9309 58.0889C82.8196 61.458 83.1727 63.6134 83.4462 64.8953C83.5715 65.5419 83.6626 65.9729 83.731 66.2452C83.7994 66.5175 83.8335 66.6195 83.8335 66.6195C83.8335 66.6195 83.8449 66.5061 83.8449 66.2225C83.8449 65.9389 83.8563 65.4965 83.8108 64.8272C83.7082 63.5226 83.5259 61.2765 82.6145 57.8393Z" fill="#E27E25"/>
<path d="M88.5161 46.2572C89.2453 47.0513 90.4757 48.3105 92.1733 50.4772C93.9734 52.8141 94.9191 54.4022 95.5343 55.3324C95.8419 55.7975 96.047 56.1152 96.1837 56.2967C96.3204 56.4895 96.3888 56.5576 96.3888 56.5576C96.3888 56.5576 96.366 56.4668 96.2863 56.2399C96.2065 56.0131 96.0812 55.6614 95.8533 55.1396C95.3862 54.1073 94.5659 52.383 92.7088 49.9781C90.8289 47.5958 89.4276 46.4728 88.6186 45.8602C87.7983 45.259 87.5249 45.1682 87.5249 45.1682C87.5249 45.1682 87.5819 45.2476 87.7414 45.4178C87.9123 45.5993 88.1629 45.8715 88.5161 46.2572Z" fill="#E27E25"/>
<path d="M32.975 57.2834C34.3194 54.6857 35.1853 53.1883 35.6296 52.2921C36.0853 51.4073 36.1537 51.135 36.1537 51.135C36.1537 51.135 35.8688 51.3959 35.2308 52.2467C34.5928 53.0975 33.5674 54.5382 32.3028 56.9998C30.9584 59.6317 30.4001 61.4013 30.0925 62.4677C29.7963 63.534 29.7849 63.9197 29.7849 63.9197C29.7849 63.9197 29.9786 63.5907 30.4457 62.5811C30.9128 61.5828 31.642 59.8926 32.975 57.2834Z" fill="#E27E25"/>
<path d="M51.3063 61.5603C52.4684 57.2383 53.4711 54.7993 53.9724 53.37C54.223 52.6553 54.4053 52.2015 54.485 51.9293C54.5762 51.657 54.599 51.5549 54.599 51.5549C54.599 51.5549 54.5192 51.6797 54.3483 51.9747C54.1774 52.2696 53.8926 52.7461 53.5394 53.4834C52.8216 54.9354 51.6709 57.3857 50.5886 61.4809C49.4607 65.8597 49.3353 68.707 49.2784 70.3859C49.2556 71.2254 49.2784 71.7926 49.3011 72.1443C49.3239 72.4959 49.3353 72.6321 49.3353 72.6321C49.3353 72.6321 49.3581 72.4846 49.4151 72.1329C49.4606 71.7813 49.529 71.2141 49.6429 70.3746C49.7455 69.5351 49.905 68.4234 50.1556 66.9714C50.3949 65.508 50.7367 63.7157 51.3063 61.5603Z" fill="#E27E25"/>
<path d="M121.283 93.5964C121.215 93.9026 121.101 94.3678 120.941 95.0597C120.611 96.455 120.121 98.7579 118.993 102.263C117.763 106.007 116.737 108.253 116.179 109.625C115.894 110.306 115.701 110.771 115.587 111.055C115.473 111.35 115.438 111.463 115.438 111.463C115.438 111.463 115.518 111.361 115.689 111.1C115.86 110.839 116.145 110.419 116.509 109.762C117.239 108.446 118.458 106.234 119.7 102.411C120.919 98.5877 121.192 96.2168 121.329 94.8782C121.397 94.2089 121.397 93.7779 121.397 93.517C121.397 93.256 121.386 93.1653 121.386 93.1653C121.386 93.1653 121.363 93.3014 121.283 93.5964Z" fill="#E27E25"/>
<path d="M99.921 108.91C99.8185 109.228 99.7957 109.364 99.7957 109.364C99.7957 109.364 99.8641 109.239 100.035 108.956C100.194 108.661 100.457 108.184 100.798 107.447C101.459 105.983 102.553 103.488 103.476 99.2792C104.364 95.0592 104.364 92.5068 104.342 91.0548C104.33 90.3287 104.273 89.875 104.25 89.5914C104.216 89.3191 104.193 89.217 104.193 89.217C104.193 89.217 104.171 89.3532 104.137 89.6821C104.102 90.0111 104.045 90.5329 103.966 91.293C103.795 92.8131 103.578 95.3314 102.747 99.1997C101.835 103.318 100.935 105.813 100.445 107.322C100.194 108.082 100.024 108.581 99.921 108.91Z" fill="#E27E25"/>
<path d="M57.4246 112.381C56.5701 108.524 56.0916 106.244 55.7612 104.939C55.4422 103.635 55.2827 103.306 55.2827 103.306C55.2827 103.306 55.2827 103.816 55.4422 105.234C55.6017 106.652 55.9321 108.989 56.7296 112.608C57.5955 116.465 58.3588 118.824 58.8601 120.22C59.3614 121.615 59.6007 122.058 59.6007 122.058C59.6007 122.058 59.5323 121.558 59.2019 120.095C58.8601 118.643 58.3133 116.227 57.4246 112.381Z" fill="#E27E25"/>
<path d="M46.0769 106.629C46.0769 106.629 46.0883 107.094 46.3162 108.399C46.544 109.692 46.977 111.825 48.0251 115.08C49.1531 118.552 50.1443 120.616 50.7709 121.83C51.3975 123.044 51.6824 123.407 51.6824 123.407C51.6824 123.407 51.557 122.953 51.0899 121.66C50.6342 120.367 49.8139 118.234 48.6973 114.785C47.5922 111.326 47.0111 109.272 46.6238 108.104C46.2364 106.913 46.0769 106.629 46.0769 106.629Z" fill="#E27E25"/>
<path d="M24.7263 104.668C24.6352 104.407 24.5896 104.327 24.5896 104.327C24.5896 104.327 24.601 104.464 24.6352 104.781C24.6694 105.099 24.7377 105.621 24.8972 106.369C25.2162 107.855 25.7859 110.351 27.5404 113.924C28.4861 115.83 29.4203 117.282 30.2406 118.405C31.0609 119.528 31.7445 120.334 32.2914 120.912C32.8269 121.491 33.2256 121.854 33.4649 122.069C33.7155 122.285 33.8181 122.364 33.8181 122.364C33.8181 122.364 33.7383 122.251 33.5446 121.979C33.3396 121.706 33.0206 121.287 32.5534 120.651C32.0749 120.016 31.4711 119.154 30.7077 118.008C29.9558 116.851 29.0671 115.399 28.1443 113.527C26.31 109.761 25.6378 107.379 25.1707 106.04C24.9428 105.348 24.8289 104.917 24.7263 104.668Z" fill="#E27E25"/>
<path d="M8.08052 85.6767C8.01216 84.2701 8.00076 82.387 8.13748 79.9367C8.29699 77.4864 8.66157 74.4689 9.6072 70.8615C10.5528 67.2654 11.6808 64.5202 12.6492 62.3875C12.8998 61.8544 13.1391 61.3666 13.3556 60.9015C13.5948 60.4477 13.8113 60.028 14.0164 59.6423C14.4151 58.8482 14.8025 58.2129 15.1101 57.6571C15.4177 57.1012 15.6798 56.6588 15.8962 56.2958C16.1127 55.9328 16.2722 55.6605 16.3975 55.445C16.6368 55.0253 16.7052 54.8665 16.7052 54.8665C16.7052 54.8665 16.5457 55.048 16.1697 55.4904C15.7937 55.9328 15.2013 56.6361 14.4379 57.7592C14.0278 58.3037 13.6176 58.9843 13.1391 59.7671C12.6378 60.5384 12.1821 61.4687 11.6238 62.501C10.5984 64.6109 9.47048 67.2995 8.58182 70.7367C7.63618 74.4121 7.32856 77.4977 7.2716 79.982C7.22603 82.4664 7.36274 84.3608 7.56782 85.7561C7.73872 87.1628 7.96658 88.0816 8.1033 88.6488C8.24002 89.216 8.30838 89.4429 8.30838 89.4429C8.30838 89.4429 8.29699 89.2047 8.26281 88.6148C8.22863 88.0249 8.13748 87.0834 8.08052 85.6767Z" fill="#E27E25"/>
<path d="M108.021 42.4341C103.544 39.2238 98.5423 36.592 92.3217 36.6827C89.4278 34.5727 85.9984 33.9375 82.3298 34.3912C80.4955 32.8485 76.0294 32.2245 72.5203 33.5745C71.4607 30.557 70.9366 27.3693 70.9936 24.1703C71.0506 20.9259 71.6544 17.5908 72.8393 14.5619C74.0242 11.5671 76.0066 9.30968 77.6814 6.67788C78.1485 6.65519 78.5815 6.32621 78.8207 5.84976C79.2537 4.94225 78.8435 3.72844 78.6384 2.82092C78.422 1.81131 78.046 0.82438 77.1004 0.291212C76.6788 0.0529885 75.0268 -0.253299 74.5483 0.359276C74.0014 0.506748 69.0226 2.82092 66.0945 6.47368C63.6222 9.5479 62.2095 13.2914 61.0474 17.0236C59.3498 22.5027 57.994 28.7646 55.2938 34.0849C53.1633 33.2568 50.3378 34.516 48.2414 35.7185C43.9234 35.0719 39.1041 36.3991 35.6292 39.2578C1.42682 43.6479 -10.6841 90.3398 10.5072 117.021C16.2835 124.667 24.8056 130.906 34.3076 132.834C36.8938 134.4 39.6396 135.716 42.4993 136.748C47.6148 138.586 53.7102 139.992 59.1903 139.278C59.8169 139.198 60.7967 139.618 61.4347 139.709C62.3348 139.845 63.2462 139.924 64.1691 139.947C64.9097 139.97 65.7983 140.072 66.5275 139.913C67.8947 139.618 68.6808 139.539 70.0594 139.686C71.2329 139.811 72.5545 139.652 73.6482 139.176C76.9864 137.724 80.8715 138.189 84.4034 137.338C88.391 136.385 92.1849 134.695 95.6713 132.551C99.9893 131.655 104.079 129.261 107.816 127.026C111.701 124.712 115.131 121.502 118.047 118.064C123.869 111.19 127.72 102.705 129.144 93.811C132.836 74.0725 124.359 53.0521 108.021 42.4341ZM76.6332 33.7446C78.0232 33.756 79.3448 34.0282 80.6664 34.3459C78.308 34.9017 76.1206 36.0134 74.423 37.681C74.3432 37.5335 74.2635 37.3974 74.1837 37.2499C74.6053 36.3878 75.2319 35.8092 75.7104 35.4689C75.9724 35.2874 76.1889 35.1626 76.3484 35.0832C76.5079 35.0038 76.5877 34.9584 76.5877 34.9584C76.5877 34.9584 76.4965 34.9357 76.3142 34.9244C76.1319 34.9131 75.8585 34.9131 75.5053 34.9925C75.1521 35.0719 74.7192 35.2307 74.2862 35.537C74.0584 35.6958 73.8191 35.9113 73.6027 36.1722C73.2836 35.5256 72.9874 34.8677 72.7368 34.1757C74.0242 33.9715 75.3116 33.7333 76.6332 33.7446ZM75.756 1.33486C76.2573 0.279868 77.032 1.1647 77.6244 2.36716C78.2511 3.67172 78.6612 5.35063 78.2283 5.39601C78.2055 5.39601 78.1941 5.39601 78.1713 5.40735C77.7384 5.6002 77.3624 5.84977 76.8725 5.6002C76.2117 5.25988 76.4168 4.6473 76.3142 4.04607C76.1889 3.36543 75.9269 2.66211 75.7674 1.98147C75.7104 1.76593 75.6648 1.52771 75.756 1.33486ZM60.4891 22.4006C61.3436 18.0105 62.7449 13.4843 65.2059 9.70672C68.9087 4.03473 71.4152 3.46753 74.6053 1.61846C74.7306 1.58443 74.8559 1.55039 74.9698 1.51636C74.9926 1.50502 75.004 1.49367 75.0268 1.48233C75.2775 1.98147 75.2433 2.59404 75.2319 3.13855C75.2319 3.38812 75.2433 3.64903 75.2661 3.8986C72.8051 5.25988 70.8113 7.95975 69.41 10.2059C67.3592 13.4956 66.0604 17.2278 65.1945 20.994C63.5539 28.084 63.0526 36.2857 65.4793 43.2509C64.3742 43.4324 63.326 43.8181 62.3462 44.3626C62.1867 44.2605 62.0158 44.1697 61.8677 44.079C61.6056 43.9202 61.3436 43.7727 61.0701 43.6479C62.0386 41.1522 62.2209 39.5301 62.2209 39.5301C62.2209 39.5301 61.1727 40.8233 60.0334 43.3076C59.6004 43.1148 59.1675 42.9446 58.7232 42.7971C60.0562 40.3809 60.4891 38.77 60.4891 38.77C60.4891 38.77 59.1903 39.9952 57.6408 42.4795C57.1167 42.3434 56.5812 42.2526 56.0571 42.1845C56.0571 42.1619 56.0458 42.1505 56.0344 42.1278C57.1623 40.7325 57.9028 39.462 58.3814 38.5318C58.951 37.3974 59.1675 36.7394 59.1675 36.7394C59.1675 36.7394 58.7345 37.2839 57.9484 38.2482C57.242 39.1103 56.2622 40.3128 54.9748 41.7421C54.7241 41.6627 54.4735 41.5833 54.2342 41.4585C54.1773 41.4245 54.1203 41.3905 54.0633 41.3564C54.8837 40.517 55.5786 39.6548 56.1483 38.8267C57.1053 37.4314 57.7319 36.1382 58.1649 35.0605C58.5978 33.9829 58.8143 33.1094 58.9624 32.5308C59.0877 31.9409 59.1447 31.6346 59.1447 31.6346C59.1447 31.6346 59.0308 31.9296 58.8143 32.4854C58.5864 33.03 58.2332 33.8467 57.6978 34.845C56.8319 36.4558 55.4419 38.6112 53.2202 40.7212C53.0493 40.5624 52.8784 40.4035 52.6962 40.2334C52.662 40.1994 52.6278 40.188 52.5936 40.188C52.5936 40.188 52.5936 40.1767 52.5936 40.1653C57.242 35.5143 59.2586 28.7986 60.4891 22.4006ZM38.5458 38.4297C39.218 38.1574 39.9016 37.8965 40.5852 37.6583C41.9524 37.1932 43.3537 36.8075 44.7893 36.6033C47.5009 36.2176 49.7909 36.7848 52.286 37.6583C52.4341 37.715 52.5822 37.7604 52.7303 37.8171C52.6962 36.3878 50.1555 35.8319 49.1301 35.571C52.2176 34.5841 53.6304 34.2891 54.8723 34.9017C53.8924 36.6941 52.7303 38.373 51.3404 39.8477C48.6744 38.5545 46.9084 38.1688 46.9084 38.1688C46.9084 38.1688 48.1389 39.2918 50.5428 40.6531C50.4631 40.7325 50.3719 40.8119 50.2922 40.8913C48.9364 39.9498 47.6376 39.5301 46.7375 39.3486C46.2362 39.2465 45.8489 39.2124 45.5754 39.2011C45.3134 39.1897 45.1767 39.1897 45.1767 39.1897C45.1767 39.1897 45.302 39.2465 45.5412 39.3599C45.7805 39.4733 46.1337 39.6322 46.5666 39.8477C47.1477 40.1426 47.8882 40.5397 48.7085 41.0955C44.983 39.5301 40.9156 38.9515 36.8482 39.1557C37.3381 39.133 38.0673 38.6225 38.5458 38.4297ZM12.7858 108.933C13.2529 110.226 13.9821 112.143 15.2012 114.502C16.4316 116.851 18.1406 119.664 20.6016 122.613C22.208 124.542 24.1448 126.527 26.4349 128.422C13.5606 121.876 4.9815 109.307 2.78261 94.469C-3.3811 60.8341 22.8232 32.6329 49.4263 42.1619C49.7681 42.627 49.5972 42.0484 49.8593 42.6043C49.6656 42.6497 49.4719 42.695 49.2896 42.7517C40.6194 40.4603 30.2858 44.6462 23.6549 50.148C4.60552 65.9389 3.44342 106.777 27.9957 128.24C28.2578 128.467 28.5198 128.682 28.7819 128.898C25.7855 126.686 23.3131 124.315 21.2965 122.035C18.8014 119.21 17.0013 116.522 15.6683 114.264C14.3467 111.995 13.5036 110.146 12.9453 108.887C12.4212 107.617 12.1478 106.959 12.1478 106.959C12.1478 106.959 12.3529 107.628 12.7858 108.933ZM50.4859 136.669C48.0363 135.977 46.0539 135.08 44.0373 133.957C43.593 133.696 43.3537 133.572 43.3537 133.572C43.3537 133.572 43.5588 133.753 43.9348 134.094C44.3336 134.423 44.926 134.91 45.7691 135.455C46.4299 135.886 47.273 136.374 48.2642 136.827C46.9654 136.567 45.6552 136.249 44.3563 135.818C39.5712 134.275 34.5354 132.018 30.5478 128.955C23.4954 123.532 18.7217 115.943 15.3607 107.741C8.43363 90.8503 9.4932 69.1946 21.5472 54.8104C25.0677 50.6018 29.4085 46.8242 34.581 44.8731C39.1838 43.1374 43.8323 42.7291 48.6516 42.9673C45.3476 44.0677 42.2942 46.1096 39.9244 48.696C36.9394 51.9517 34.9228 55.9902 33.1455 59.9946C31.1175 64.5776 29.4655 69.2967 28.5312 74.2313C23.4612 100.969 37.0077 126.731 50.8163 135.636C37.2242 128.909 29.0781 111.383 26.4121 99.5624C26.8222 109.602 35.3785 129.159 50.4859 136.669ZM64.4197 137.667C63.9754 137.406 63.5653 137.088 63.1779 136.748C62.0386 135.738 61.1157 134.525 60.2954 133.288C58.6092 130.826 57.1965 128.388 56.0002 126.051C53.6076 121.377 52.0695 117.134 50.9188 113.663C49.7795 110.18 49.0845 107.447 48.6174 105.586C48.1731 103.726 47.9338 102.761 47.9338 102.761C47.9338 102.761 47.9794 103.011 48.0591 103.487C48.1503 103.964 48.2642 104.679 48.4579 105.62C48.8225 107.492 49.4035 110.271 50.4175 113.81C51.4315 117.338 52.8671 121.661 55.1913 126.448C56.3534 128.83 57.7433 131.337 59.4295 133.867C60.1701 135.001 61.0132 136.135 62.0614 137.168C61.8905 137.111 61.7196 137.066 61.5601 137.009C60.3752 136.578 59.4181 136.045 58.6662 135.557C57.9256 135.058 57.4015 134.604 57.0484 134.286C56.7066 133.957 56.5243 133.787 56.5243 133.787C56.5243 133.787 56.6496 134.003 56.923 134.4C57.2079 134.786 57.6522 135.353 58.3472 135.977C59.0422 136.601 59.9764 137.293 61.2183 137.86C61.5942 138.03 61.993 138.189 62.4259 138.325C47.2958 136.623 37.0647 120.435 32.5074 106.891C29.7161 98.5869 28.7021 89.7385 29.4085 81.0037C30.1263 72.2121 32.291 62.8533 36.9508 55.2755C40.8586 48.9115 47.7173 42.8538 55.2254 43.0013L55.271 43.0467C55.2824 43.0354 55.2938 43.024 55.3052 43.0013C57.4129 43.058 59.9764 43.6706 61.7196 44.8617C61.7196 44.8617 57.0142 47.8565 54.8609 53.7668C51.8417 62.0706 50.5884 71.3273 49.996 80.1075C49.3807 89.1373 49.882 98.1785 51.4543 107.083C52.9468 115.512 55.1685 124.145 59.9308 131.36C61.355 133.526 63.2804 136.033 65.5135 137.746C65.1375 137.724 64.7729 137.701 64.4197 137.667ZM74.2749 136.986C74.1381 136.998 74.0014 137.009 73.8647 137.02C78.4676 128.138 79.4702 115.138 78.5017 105.223C77.9435 114.162 77.9207 123.271 75.004 131.677C74.4344 133.277 73.728 134.922 72.8735 136.532C72.1329 136.85 71.4835 137.236 70.6176 137.224C69.9454 137.213 69.3416 137.009 68.7719 136.725C67.7124 135.761 66.7895 134.774 66.0148 133.81C64.7274 132.21 63.8045 130.69 63.1209 129.431C62.4487 128.161 62.0272 127.128 61.7423 126.425C61.4803 125.71 61.3436 125.347 61.3436 125.347C61.3436 125.347 61.4233 125.733 61.5942 126.47C61.7879 127.208 62.0841 128.297 62.6538 129.658C63.2235 131.008 64.0552 132.641 65.3084 134.366C66.1515 135.523 67.1883 136.725 68.4529 137.882C65.1261 136.567 62.3576 132.539 60.5802 129.635C56.6496 123.215 54.633 115.716 53.2544 108.365C50.3492 92.9262 51.1125 76.727 54.6558 61.458C56.3876 53.9823 59.8511 42.4568 69.729 44.045C70.0252 44.0903 70.1391 43.6933 69.8543 43.5912C68.5669 43.1828 67.325 43.058 66.1515 43.1601C64.6932 36.0815 64.3514 28.9007 65.935 21.7994C66.7212 18.2714 67.9972 14.8455 69.8201 11.7259C70.743 10.1491 71.7911 8.65173 73.0216 7.29045C73.7963 6.42831 74.685 5.69095 75.5395 4.91956C75.5851 5.06703 75.642 5.2145 75.7104 5.35063C75.7788 5.48676 75.8585 5.61154 75.961 5.73633C73.3634 8.16394 71.9962 10.7277 71.2784 12.5087C70.9025 13.4502 70.686 14.1989 70.5607 14.7094C70.4467 15.2199 70.3898 15.4808 70.3898 15.4808C70.3898 15.4808 70.5037 15.2312 70.7202 14.7548C70.948 14.2897 71.2784 13.5977 71.757 12.7356C72.714 11.0567 74.2862 8.69711 76.8953 6.38293C76.9181 6.38293 76.9295 6.39428 76.9523 6.40562C74.7534 8.43619 73.2495 11.5785 72.1557 14.2216C70.8341 17.3979 70.048 20.7104 69.9796 24.1476C69.8999 27.9025 70.6632 31.646 72.0646 35.1172C72.9532 37.3066 74.104 40.0746 75.8129 42.0257C75.699 42.1392 75.5851 42.2413 75.4711 42.332C75.2547 42.4681 75.0382 42.6156 74.8217 42.7517C72.2127 39.6775 70.6404 36.3084 69.7404 33.2568C68.8061 30.0692 68.6124 27.1878 68.6694 24.8736C68.7378 22.5481 69.1023 20.7785 69.3644 19.5873C69.6834 18.4076 69.8543 17.795 69.8543 17.795C69.8543 17.795 69.615 18.3849 69.2049 19.542C68.8517 20.7104 68.3504 22.48 68.1453 24.8396C67.9516 27.1991 68.0086 30.1713 68.8745 33.4951C69.2732 35.1626 69.9454 36.8983 70.8113 38.6566C71.6202 40.2561 72.6456 41.8669 73.9331 43.3984C73.8647 43.421 73.8077 43.4551 73.7394 43.4891C73.4773 43.5572 73.2153 43.6025 72.9305 43.6252C71.0506 41.1863 69.8087 39.0082 69.0112 37.4655C68.5897 36.6487 68.282 35.9907 68.0656 35.5597C67.8605 35.1172 67.758 34.8904 67.758 34.8904C67.758 34.8904 67.8149 35.1399 67.9175 35.6164C68.0314 36.0928 68.2137 36.7962 68.5327 37.681C69.1023 39.3032 70.1049 41.5947 71.9165 44.0903C71.8253 44.0677 71.7456 44.0336 71.6544 44.0223C71.5405 43.9996 71.5063 44.1584 71.6088 44.1924C76.1775 45.7352 77.5675 50.511 78.5701 55.2301C79.5157 59.6997 80.2791 64.2146 80.8145 68.7522C81.8627 77.7253 82.2957 86.9366 81.7146 95.955C81.2589 102.126 80.4158 132.891 74.2749 136.986ZM84.8249 128.093C84.5287 128.614 84.0958 129.386 83.435 130.316C82.4438 131.689 80.9399 133.481 78.6954 135.08C79.117 134.559 79.4929 134.014 79.8347 133.47C81.1905 131.303 82.0108 129.057 82.6488 126.958C84.6654 120.038 86.8188 112.846 85.8731 106.823C85.406 112.585 84.449 118.337 81.7944 126.697C81.1222 128.728 80.2677 130.883 78.9575 132.925C78.5131 133.617 78.0004 134.298 77.4308 134.933C78.7524 132.596 79.5385 129.93 80.0398 127.162C82.0792 115.932 83.2869 101.275 83.0818 84.5543C82.9906 76.8631 82.5463 69.2286 81.3158 61.6395C80.393 55.9221 79.3904 47.641 73.7052 44.805C74.3888 44.5668 75.0496 44.2378 75.7674 44.0903C76.0522 44.0336 76.3256 43.9996 76.6105 43.9769C84.3236 44.1811 89.7696 49.8871 93.347 56.4666C96.9929 63.1936 99.0664 70.5559 99.8867 78.145C101.505 92.9716 98.1208 108.093 91.4672 121.354C88.3227 127.627 84.2553 134.434 77.5675 137.1C79.0942 136.181 80.3474 135.126 81.3272 134.082C82.5007 132.846 83.2983 131.621 83.8679 130.6C84.4376 129.567 84.7566 128.728 84.9617 128.161C85.1553 127.582 85.2351 127.287 85.2351 127.287C85.2351 127.287 85.0984 127.559 84.8249 128.093ZM118.389 115.591C115.495 119.312 112.134 122.534 108.386 125.381C106.119 127.106 103.76 128.376 101.311 129.488C105.39 126.675 108.238 123.725 110.141 121.468C111.371 119.993 112.226 118.779 112.784 117.962C113.319 117.123 113.604 116.692 113.604 116.692C113.604 116.692 113.274 117.089 112.658 117.872C112.02 118.632 111.075 119.755 109.753 121.127C108.067 122.863 105.766 125.041 102.724 127.253C109.73 120.844 114.55 112.381 117.239 103.306C120.064 93.777 120.736 83.4313 119.346 73.596C118.025 64.2486 114.63 54.731 107.554 48.1969C100.992 42.1392 90.4076 38.3843 81.6576 41.3564C81.6462 41.3564 81.6462 41.3791 81.669 41.3791C90.7266 39.8137 98.8044 42.5702 105.606 48.6733C112.362 54.7423 116.19 63.5112 117.683 72.3482C120.691 90.1469 116.544 110.872 103.795 124.145C98.6107 129.545 92.5495 133.186 85.7478 135.364C86.9555 134.627 87.6618 134.059 88.0834 133.674C88.6075 133.197 88.6872 133.016 88.6872 133.016C88.6872 133.016 88.4252 133.107 87.7758 133.447C87.115 133.787 86.0668 134.377 84.4148 135.296C83.754 135.659 83.1843 135.965 82.6944 136.238C82.5577 136.272 82.421 136.306 82.2843 136.34C83.8223 135.477 85.2123 134.513 86.477 133.504C88.2315 132.086 89.7696 130.622 91.0456 129.125C93.6433 126.153 95.375 123.249 96.6055 120.832C97.8246 118.393 98.531 116.42 98.9753 115.081C99.3854 113.731 99.5791 113.028 99.5791 113.028C99.5791 113.028 99.3171 113.708 98.8272 115.036C98.2917 116.34 97.4714 118.257 96.1498 120.594C94.8168 122.92 92.9939 125.699 90.3734 128.535C89.1544 129.885 87.7074 131.212 86.0896 132.494C87.8327 130.532 89.3366 128.331 90.6469 126.141C94.9193 119.029 98.1094 111.247 100.023 103.17C103.783 87.3336 102.348 70.658 94.5547 56.2398C91.376 50.3636 85.5997 42.661 78.3764 43.0921C78.2625 43.058 78.1485 43.0353 78.0346 43.0127C77.6017 42.1732 77.0092 41.4132 76.4282 40.6645C77.7156 39.2124 79.1739 38.4297 80.2221 38.01C80.7918 37.7831 81.2589 37.647 81.5779 37.5675C81.8969 37.4881 82.0678 37.4541 82.0678 37.4541C82.0678 37.4541 81.8969 37.4314 81.5665 37.4087C81.2361 37.3974 80.7348 37.3974 80.0854 37.5108C79.4474 37.6243 78.6498 37.8398 77.8067 38.2822C77.1345 38.6339 76.4282 39.1217 75.7674 39.791C75.6193 39.5868 75.4597 39.3826 75.323 39.167C75.1407 38.8948 74.9698 38.6112 74.7875 38.3276C77.6017 36.5579 80.2677 35.4122 83.6856 35.3101C86.1807 35.2307 88.3568 35.6731 90.4988 36.5239C86.6023 36.6373 82.7742 37.8285 79.379 40.483C79.2309 40.5964 79.4246 40.8346 79.5727 40.7439C87.9809 35.5029 98.793 36.9436 106.734 42.5022C114.242 47.7658 120.019 55.9335 123.676 64.2713C131.058 81.0831 129.851 100.856 118.389 115.591Z" fill="#E27E25"/>
</svg>
