<svg width="187" height="53" viewBox="0 0 187 53" fill="none" xmlns="http://www.w3.org/2000/svg">
<path d="M20.7062 31.2215C23.0711 17.8733 30.1926 12.1905 30.1926 12.1905C20.8389 18.351 18.8349 31.7417 18.8349 31.7417C13.7864 16.7452 25.7095 10.6829 30.3014 3.57485C28.5921 3.20591 26.8163 3.00684 24.9955 3.00684C11.1932 3.00418 0 14.1971 0 28.0019C0 41.6553 10.9463 52.7501 24.5416 52.9943C14.2429 44.867 20.7062 31.2215 20.7062 31.2215ZM17.1202 38.6083C17.1202 38.6083 15.2091 30.112 8.92109 26.5978C8.92109 26.5978 13.7572 29.9103 15.8966 38.3641C13.3113 37.727 7.38425 35.6143 5.61914 29.3794C4.56539 25.6529 5.29001 21.844 7.28339 18.858C8.88658 24.5142 20.0691 27.1578 17.1202 38.6083Z" fill="#8AC224"/>
<path d="M37.8405 6.55334C36.4895 2.55604 31.8551 0 31.8551 0C35.2871 4.40605 36.8399 10.2295 35.6269 16.1272C34.4908 21.6533 31.1836 25.3215 27.802 27.705C23.7675 30.5477 21.1105 34.9803 20.7257 39.8986C20.1868 46.797 23.5286 51.5057 24.7681 52.9973C24.8451 52.9973 24.9221 53 25.0017 53C38.8067 53 49.9999 41.807 49.9999 28.0023C49.9972 18.8929 45.1213 10.9222 37.8405 6.55334ZM38.9766 35.5218C36.3541 44.2888 27.94 47.1447 24.2771 47.9888C27.4808 36.1004 34.3767 31.5271 34.3767 31.5271C25.4238 36.3552 22.5438 48.3099 22.5438 48.3099C18.6261 32.0792 34.4722 28.5862 36.8531 20.6315C39.603 24.8889 40.5453 30.2823 38.9766 35.5218Z" fill="#F78914"/>
<path d="M73.574 14.288C75.45 14.288 77.158 14.526 78.698 15.002C80.238 15.45 81.498 16.122 82.478 17.018C84.242 18.614 85.474 20.364 86.174 22.268C86.902 24.144 87.266 26.552 87.266 29.492C87.266 30.108 87.182 30.668 87.014 31.172C86.874 31.676 86.636 32.32 86.3 33.104C85.88 33.972 85.628 34.658 85.544 35.162C84.984 36.142 84.06 37.08 82.772 37.976C81.512 38.872 80.14 39.6 78.656 40.16C77.172 40.72 75.87 41 74.75 41C69.346 41 65.496 39.152 63.2 35.456C62.556 34.42 62.052 33.342 61.688 32.222C61.352 31.102 61.184 30.01 61.184 28.946C61.184 26.09 61.688 23.612 62.696 21.512C63.732 19.384 65.16 17.732 66.98 16.556C68.072 15.912 69.206 15.38 70.382 14.96C71.586 14.512 72.65 14.288 73.574 14.288ZM65.552 29.072C65.552 30.584 65.888 31.83 66.56 32.81C67.26 33.79 68.324 34.854 69.752 36.002C70.928 36.45 71.726 36.744 72.146 36.884C72.566 36.996 73.042 37.052 73.574 37.052C76.402 37.052 78.656 36.282 80.336 34.742C82.016 33.202 82.856 31.088 82.856 28.4C82.856 26.272 82.618 24.592 82.142 23.36C81.666 22.128 80.812 21.022 79.58 20.042C78.936 19.51 78.11 19.118 77.102 18.866C76.122 18.614 75.058 18.488 73.91 18.488C72.174 18.488 70.676 19.006 69.416 20.042C68.156 21.05 67.19 22.366 66.518 23.99C65.874 25.614 65.552 27.308 65.552 29.072ZM106.066 29.87C107.046 31.522 108.026 32.992 109.006 34.28C110.014 35.54 111.33 37.094 112.954 38.942C113.15 39.138 113.248 39.362 113.248 39.614C113.248 40.006 113.024 40.342 112.576 40.622C112.156 40.902 111.638 41.042 111.022 41.042C110.154 41.042 109.216 40.678 108.208 39.95C107.312 39.306 106.514 38.452 105.814 37.388C105.114 36.324 104.302 34.938 103.378 33.23C102.65 31.914 102.216 31.144 102.076 30.92C100.984 31.368 99.2756 31.648 96.9516 31.76C96.9516 32.712 97.0356 34 97.2036 35.624C97.3716 37.304 97.4556 38.522 97.4556 39.278C97.4556 39.782 97.2036 40.202 96.6996 40.538C96.2236 40.874 95.6776 41.042 95.0616 41.042C94.3336 41.042 93.7736 40.748 93.3816 40.16C92.9896 39.376 92.7376 38.438 92.6256 37.346C92.5136 36.254 92.4576 34.952 92.4576 33.44C92.4576 31.844 92.5556 30.038 92.7516 28.022C92.9196 25.782 93.0036 24.13 93.0036 23.066C93.0036 22.198 92.9196 21.036 92.7516 19.58C92.7236 19.328 92.6816 18.894 92.6256 18.278C92.5696 17.662 92.5416 17.102 92.5416 16.598C92.5416 16.206 92.6816 15.87 92.9616 15.59C93.2696 15.282 93.5916 15.072 93.9276 14.96C96.1956 14.596 98.4076 14.414 100.564 14.414C104.232 14.414 107.27 15.1 109.678 16.472C112.086 17.844 113.29 19.93 113.29 22.73C113.29 23.598 113.094 24.438 112.702 25.25C112.338 26.034 111.834 26.692 111.19 27.224C109.482 28.54 107.774 29.422 106.066 29.87ZM108.88 22.604C108.88 21.26 108.166 20.168 106.738 19.328C105.31 18.46 103.28 18.026 100.648 18.026C99.4716 18.026 98.3096 18.166 97.1616 18.446L97.2036 20.588C97.2036 21.82 97.1616 23.024 97.0776 24.2C96.9936 25.376 96.9516 26.636 96.9516 27.98C97.4276 27.868 97.9316 27.798 98.4636 27.77C98.9956 27.714 99.3456 27.672 99.5136 27.644C100.746 27.532 101.698 27.392 102.37 27.224C103.63 26.832 104.666 26.482 105.478 26.174C106.318 25.838 107.088 25.376 107.788 24.788C108.516 24.172 108.88 23.444 108.88 22.604ZM136.915 38.312C136.943 38.9 136.873 39.32 136.705 39.572C136.537 39.796 136.201 40.034 135.697 40.286C134.941 40.65 134.045 40.888 133.009 41C132.001 41.112 130.699 41.168 129.103 41.168H126.247C123.755 41.168 121.907 40.748 120.703 39.908C119.499 39.04 118.743 38.004 118.435 36.8C118.127 35.596 117.945 34.042 117.889 32.138C117.861 31.494 117.847 30.542 117.847 29.282C117.847 26.538 118.085 22.87 118.561 18.278C118.701 16.934 119.191 15.968 120.031 15.38C120.871 14.764 121.823 14.456 122.887 14.456C123.755 14.456 125.169 14.428 127.129 14.372L130.825 14.33C132.337 14.33 133.429 14.372 134.101 14.456C134.941 14.624 135.571 14.82 135.991 15.044C136.411 15.24 136.635 15.59 136.663 16.094C136.663 16.654 136.481 17.2 136.117 17.732C135.753 18.264 135.193 18.53 134.437 18.53C133.569 18.53 132.323 18.474 130.699 18.362C129.075 18.25 127.843 18.194 127.003 18.194C126.247 18.194 125.561 18.236 124.945 18.32C124.161 18.376 123.601 18.474 123.265 18.614C122.929 18.754 122.747 18.992 122.719 19.328C122.411 22.38 122.285 24.508 122.341 25.712C122.985 25.796 123.629 25.838 124.273 25.838C124.917 25.838 125.799 25.782 126.919 25.67C127.199 25.642 127.549 25.614 127.969 25.586C128.389 25.558 128.865 25.544 129.397 25.544C129.705 25.544 130.195 25.572 130.867 25.628L132.169 25.67C133.457 25.67 134.101 26.132 134.101 27.056C134.101 27.616 133.947 28.064 133.639 28.4C133.331 28.736 132.785 28.988 132.001 29.156C130.937 29.352 129.215 29.45 126.835 29.45H124.273C123.741 29.45 123.083 29.422 122.299 29.366C122.271 29.87 122.257 30.598 122.257 31.55C122.257 32.782 122.271 33.65 122.299 34.154C122.383 36.114 123.741 37.094 126.373 37.094C127.269 37.094 128.221 37.122 129.229 37.178L130.783 37.22C131.511 37.22 132.113 37.15 132.589 37.01C133.065 36.842 133.527 36.702 133.975 36.59C134.451 36.45 134.885 36.38 135.277 36.38C135.809 36.38 136.215 36.59 136.495 37.01C136.775 37.402 136.915 37.836 136.915 38.312Z" fill="white"/>
<path d="M161.803 17.69C162.223 18.194 162.517 18.6 162.685 18.908C162.853 19.216 162.937 19.51 162.937 19.79C162.937 20.126 162.713 20.518 162.265 20.966C161.845 21.414 161.425 21.638 161.005 21.638C160.445 21.638 159.997 21.554 159.661 21.386C159.325 21.218 159.045 20.952 158.821 20.588C158.373 19.916 157.827 19.342 157.183 18.866C156.539 18.362 155.531 18.11 154.159 18.11C152.983 18.11 151.639 18.376 150.127 18.908C148.643 19.44 147.579 20.098 146.935 20.882C146.375 21.582 145.885 22.646 145.465 24.074C145.073 25.502 144.877 26.888 144.877 28.232C144.877 29.856 145.227 31.354 145.927 32.726C146.655 34.07 147.691 35.148 149.035 35.96C150.407 36.772 152.045 37.178 153.949 37.178C154.985 37.178 156.049 36.982 157.141 36.59C158.261 36.17 159.227 35.498 160.039 34.574H159.997C160.501 34.042 161.131 33.776 161.887 33.776C162.335 33.776 162.755 33.972 163.147 34.364C163.567 34.756 163.777 35.148 163.777 35.54C163.777 35.96 163.707 36.338 163.567 36.674C163.455 36.982 163.231 37.332 162.895 37.724C161.747 39.012 160.389 39.894 158.821 40.37C157.253 40.846 155.377 41.084 153.193 41.084C151.261 41.084 149.301 40.622 147.313 39.698C145.353 38.774 143.841 37.654 142.777 36.338C142.217 35.526 141.671 34.364 141.139 32.852C140.635 31.312 140.383 30.066 140.383 29.114C140.383 26.678 140.747 24.368 141.475 22.184C142.231 19.972 143.351 18.208 144.835 16.892C145.815 15.996 147.229 15.324 149.077 14.876C150.925 14.428 152.619 14.204 154.159 14.204C156.035 14.204 157.505 14.47 158.569 15.002C159.661 15.506 160.739 16.402 161.803 17.69ZM184.129 27.518C184.353 27.91 184.535 28.484 184.675 29.24C184.815 29.968 184.885 30.626 184.885 31.214C184.885 32.306 184.647 33.86 184.171 35.876C182.239 39.404 179.383 41.168 175.603 41.168C174.203 41.168 172.775 40.706 171.319 39.782C169.863 38.858 168.855 37.794 168.295 36.59C167.539 34.182 167.161 32.656 167.161 32.012C167.161 30.892 167.399 29.702 167.875 28.442C168.379 27.182 169.009 26.09 169.765 25.166C170.241 24.522 171.095 23.976 172.327 23.528C173.559 23.052 174.679 22.814 175.687 22.814C177.647 22.814 179.313 23.192 180.685 23.948C182.057 24.676 183.205 25.866 184.129 27.518ZM180.475 34.28C180.615 33.916 180.685 32.978 180.685 31.466C180.685 30.654 180.531 29.856 180.223 29.072C179.943 28.288 179.523 27.616 178.963 27.056C178.907 27 178.753 26.916 178.501 26.804C178.249 26.664 177.899 26.538 177.451 26.426C177.031 26.286 176.541 26.216 175.981 26.216C174.413 26.216 173.265 26.846 172.537 28.106C171.809 29.366 171.445 30.794 171.445 32.39C171.445 32.67 171.515 33.202 171.655 33.986C171.823 34.77 171.963 35.26 172.075 35.456C172.159 35.652 172.369 35.932 172.705 36.296C173.069 36.632 173.503 36.94 174.007 37.22C174.539 37.472 175.085 37.598 175.645 37.598C176.905 37.598 177.913 37.304 178.669 36.716C179.425 36.1 180.027 35.288 180.475 34.28Z" fill="#F78914"/>
</svg>
