<svg width="478" height="112" viewBox="0 0 478 112" fill="none" xmlns="http://www.w3.org/2000/svg">
<path d="M162.65 39.23C162.65 37.5867 163.018 36.17 163.755 34.98C164.548 33.7333 165.71 33.11 167.24 33.11C168.543 33.11 169.705 33.365 170.725 33.875C171.745 34.385 172.255 35.235 172.255 36.425C172.255 38.7483 172.142 42.0067 171.915 46.2C171.688 50.28 171.575 53.3117 171.575 55.295C171.575 58.4117 171.688 62.5767 171.915 67.79C172.142 72.7767 172.255 76.4317 172.255 78.755C172.255 80.625 172.227 82.0133 172.17 82.92C172.17 83.8267 171.66 84.7333 170.64 85.64C169.677 86.49 168.175 86.915 166.135 86.915C165.058 86.915 164.123 86.745 163.33 86.405C162.593 86.0083 162.083 85.5833 161.8 85.13C159.137 81.9 155.255 76.4033 150.155 68.64C144.432 59.97 139.757 53.34 136.13 48.75C136.583 52.83 136.81 57.8167 136.81 63.71C136.81 66.3167 136.753 69.7167 136.64 73.91C136.583 78.0467 136.47 80.7667 136.3 82.07C136.073 83.7133 135.563 84.9883 134.77 85.895C134.033 86.745 132.843 87.17 131.2 87.17C129.953 87.17 129.018 86.83 128.395 86.15C127.828 85.4133 127.488 84.1667 127.375 82.41C127.318 80.0867 127.46 76.6017 127.8 71.955C127.857 71.2183 127.942 69.9433 128.055 68.13C128.168 66.3167 128.225 64.7017 128.225 63.285C128.225 59.375 128.027 54.8983 127.63 49.855C127.29 44.3017 127.12 40.1933 127.12 37.53C127.12 36.17 127.602 35.1217 128.565 34.385C129.585 33.6483 130.747 33.28 132.05 33.28C133.183 33.28 134.373 33.5633 135.62 34.13C140.493 40.25 147.095 49.3733 155.425 61.5L163.415 73.74C163.472 72.8333 163.5 71.5583 163.5 69.915C163.5 67.025 163.443 63.9083 163.33 60.565C163.217 57.2217 163.132 54.955 163.075 53.765C162.792 48.2683 162.65 43.4233 162.65 39.23ZM193.403 37.7C193.403 39.3433 193.347 41.525 193.233 44.245L193.148 49.77C193.148 55.1533 193.545 59.6583 194.338 63.285C195.472 68.385 197.172 72.3233 199.438 75.1C201.535 77.5367 204.113 78.755 207.173 78.755C209.553 78.755 211.678 78.0467 213.548 76.63C215.418 75.1567 216.863 73.3433 217.883 71.19C219.583 67.6767 220.433 63.3417 220.433 58.185C220.433 55.0683 220.235 51.385 219.838 47.135C219.498 42.375 219.328 38.805 219.328 36.425C219.328 35.1783 220.065 34.385 221.538 34.045C223.012 33.6483 224.542 33.45 226.128 33.45C226.695 33.45 227.347 33.8183 228.083 34.555C228.82 35.2917 229.188 36.085 229.188 36.935C229.188 38.635 229.103 40.25 228.933 41.78C228.82 43.48 228.763 44.67 228.763 45.35C228.763 47.5033 228.877 50.5067 229.103 54.36C229.16 55.3233 229.217 56.485 229.273 57.845C229.33 59.205 229.358 60.7633 229.358 62.52C229.358 66.3733 228.423 70.2267 226.553 74.08C224.74 77.8767 222.19 81.0217 218.903 83.515C215.617 85.9517 211.905 87.17 207.768 87.17C201.422 87.17 196.463 85.13 192.893 81.05C189.323 76.9133 186.887 71.5867 185.583 65.07C184.847 61.33 184.365 57.42 184.138 53.34C183.968 49.26 183.883 43.7917 183.883 36.935C183.883 36.0283 184.308 35.1783 185.158 34.385C186.065 33.5917 187.028 33.195 188.048 33.195C191.618 33.195 193.403 34.6967 193.403 37.7ZM235.656 37.445C235.656 35.0083 237.441 33.79 241.011 33.79C242.541 33.79 245.459 33.8467 249.766 33.96C254.526 34.1867 258.124 34.3 260.561 34.3C262.544 34.3 264.952 34.1867 267.786 33.96C269.712 33.8467 270.931 33.79 271.441 33.79C274.557 33.9033 277.192 34.47 279.346 35.49C279.969 35.7733 280.479 36.1133 280.876 36.51C281.272 36.9067 281.471 37.5583 281.471 38.465C281.471 39.7117 281.074 40.7883 280.281 41.695C279.487 42.545 278.524 42.97 277.391 42.97C276.144 42.97 274.331 42.8 271.951 42.46C269.854 42.0633 268.012 41.865 266.426 41.865C264.896 41.865 263.734 41.8933 262.941 41.95C262.771 43.82 262.686 48.2967 262.686 55.38C262.686 63.8233 262.941 72.38 263.451 81.05L263.621 83.515C263.621 85.8383 262.289 87 259.626 87C257.529 87 256.112 86.5183 255.376 85.555C254.639 84.535 254.271 83.005 254.271 80.965C254.271 76.9417 254.157 71.9267 253.931 65.92C253.704 60.9333 253.591 57.3917 253.591 55.295C253.591 53.8783 253.761 49.5433 254.101 42.29L244.156 42.375C240.982 42.375 238.772 42.0917 237.526 41.525C236.279 40.9017 235.656 39.5417 235.656 37.445ZM317.047 64.475C321.977 72.8617 326.596 79.52 330.902 84.45C331.356 84.9033 331.582 85.4133 331.582 85.98C331.582 86.7167 331.129 87.34 330.222 87.85C329.316 88.4167 328.267 88.7 327.077 88.7C325.321 88.7 323.422 87.9633 321.382 86.49C319.909 85.47 318.549 83.9683 317.302 81.985C316.056 79.945 314.639 77.3383 313.052 74.165L311.607 71.275C310.134 68.6117 309.256 67.0533 308.972 66.6C307.726 67.11 306.281 67.4783 304.637 67.705C302.994 67.9317 300.982 68.13 298.602 68.3C298.716 75.5533 298.772 80.625 298.772 83.515C298.772 84.5917 298.376 85.47 297.582 86.15C296.789 86.7733 295.797 87.085 294.607 87.085C293.134 87.085 292.001 86.49 291.207 85.3C290.414 83.7133 290.017 81.2483 290.017 77.905L290.102 71.7C290.102 67.8467 290.187 64.1917 290.357 60.735C290.471 56.2017 290.527 52.8583 290.527 50.705L290.612 46.37C290.612 45.0667 290.527 43.735 290.357 42.375C289.451 42.0917 288.657 41.6667 287.977 41.1C287.297 40.4767 286.957 39.7967 286.957 39.06C286.957 37.6433 287.467 36.5667 288.487 35.83C289.564 35.0367 290.896 34.5267 292.482 34.3C297.072 33.5633 301.549 33.195 305.912 33.195C313.336 33.195 319.484 34.5833 324.357 37.36C329.231 40.1367 331.667 44.3583 331.667 50.025C331.667 51.7817 331.271 53.4817 330.477 55.125C329.741 56.7117 328.721 58.0433 327.417 59.12C324.017 61.7833 320.561 63.5683 317.047 64.475ZM322.657 49.77C322.657 47.05 321.212 44.84 318.322 43.14C315.489 41.3833 311.409 40.505 306.082 40.505C303.759 40.505 301.379 40.7883 298.942 41.355C299.056 43.395 299.112 44.84 299.112 45.69C299.112 47.39 298.999 49.8267 298.772 53C298.659 56.1733 298.602 58.7233 298.602 60.65C302.399 60.65 306.026 60.14 309.482 59.12C311.976 58.3833 314.072 57.675 315.772 56.995C317.472 56.315 319.031 55.38 320.447 54.19C321.921 52.9433 322.657 51.47 322.657 49.77ZM379.54 81.56C379.597 82.75 379.455 83.6 379.115 84.11C378.775 84.5633 378.095 85.045 377.075 85.555C375.545 86.2917 373.732 86.7733 371.635 87C369.595 87.2267 366.96 87.34 363.73 87.34H357.95C352.907 87.34 349.167 86.49 346.73 84.79C344.293 83.0333 342.763 80.9367 342.14 78.5C341.517 76.0633 341.148 72.9183 341.035 69.065C340.978 67.7617 340.95 65.835 340.95 63.285C340.95 57.7317 341.432 50.3083 342.395 41.015C342.678 38.295 343.67 36.34 345.37 35.15C347.07 33.9033 348.997 33.28 351.15 33.28C352.907 33.28 355.768 33.2233 359.735 33.11L367.215 33.025C370.275 33.025 372.485 33.11 373.845 33.28C375.545 33.62 376.82 34.0167 377.67 34.47C378.52 34.8667 378.973 35.575 379.03 36.595C379.03 37.7283 378.662 38.8333 377.925 39.91C377.188 40.9867 376.055 41.525 374.525 41.525C372.768 41.525 370.247 41.4117 366.96 41.185C363.673 40.9583 361.18 40.845 359.48 40.845C357.95 40.845 356.562 40.93 355.315 41.1C353.728 41.2133 352.595 41.4117 351.915 41.695C351.235 41.9783 350.867 42.46 350.81 43.14C350.187 49.3167 349.932 53.6233 350.045 56.06C351.348 56.23 352.652 56.315 353.955 56.315C355.258 56.315 357.043 56.2017 359.31 55.975C359.877 55.9183 360.585 55.8617 361.435 55.805C362.285 55.7483 363.248 55.72 364.325 55.72C364.948 55.72 365.94 55.7767 367.3 55.89L369.935 55.975C372.542 55.975 373.845 56.91 373.845 58.78C373.845 59.9133 373.533 60.82 372.91 61.5C372.287 62.18 371.182 62.69 369.595 63.03C367.442 63.4267 363.957 63.625 359.14 63.625H353.955C352.878 63.625 351.547 63.5683 349.96 63.455C349.903 64.475 349.875 65.9483 349.875 67.875C349.875 70.3683 349.903 72.125 349.96 73.145C350.13 77.1117 352.878 79.095 358.205 79.095C360.018 79.095 361.945 79.1517 363.985 79.265L367.13 79.35C368.603 79.35 369.822 79.2083 370.785 78.925C371.748 78.585 372.683 78.3017 373.59 78.075C374.553 77.7917 375.432 77.65 376.225 77.65C377.302 77.65 378.123 78.075 378.69 78.925C379.257 79.7183 379.54 80.5967 379.54 81.56ZM429.909 37.105C429.909 38.125 429.03 39.6267 427.274 41.61C425.177 43.99 419.709 51.3 410.869 63.54C410.982 70.85 411.209 75.865 411.549 78.585C411.719 80.285 411.804 81.5033 411.804 82.24C411.804 84.11 411.464 85.385 410.784 86.065C410.16 86.6883 409.055 87 407.469 87C406.279 87 405.145 86.66 404.069 85.98C403.049 85.2433 402.539 84.365 402.539 83.345C402.539 79.2083 402.454 73.145 402.284 65.155C402.284 64.815 402.057 64.2483 401.604 63.455C401.15 62.6617 400.867 62.1517 400.754 61.925C399.564 59.8283 398.062 57.505 396.249 54.955C394.492 52.3483 392.962 50.3933 391.659 49.09C389.165 46.5967 387.21 44.3583 385.794 42.375C384.377 40.335 383.669 38.89 383.669 38.04C383.669 36.85 384.207 35.915 385.284 35.235C386.417 34.4983 387.635 34.13 388.939 34.13C389.675 34.13 390.44 34.3283 391.234 34.725C392.084 35.1217 392.764 35.6883 393.274 36.425C396.617 41.4117 399.592 45.5483 402.199 48.835L406.194 54.02C408.63 51.5267 410.755 49.0617 412.569 46.625C414.439 44.1317 416.479 41.185 418.689 37.785L420.134 35.575C421.21 34.1017 422.882 33.365 425.149 33.365C426.225 33.365 427.274 33.6767 428.294 34.3C429.37 34.9233 429.909 35.8583 429.909 37.105Z" fill="#333333"/>
<circle cx="56" cy="56" r="56" fill="#F78914"/>
<path d="M57.4252 46.5001C36.2252 54.5001 35.5919 81.8334 37.9252 94.5001C39.1252 97.7001 39.7585 95.8334 39.9252 94.5001C36.7252 70.9001 53.2585 63 61.9252 62C53.5252 64.4 47.4252 72.3333 45.4252 76C39.4252 84.8 47.2585 82.6667 51.9252 80.5C65.5252 80.9 76.2585 74.6667 79.9252 71.5C89.9252 62.7 92.7585 46.1667 92.9252 39C88.5252 42.6 77.4252 43.8334 72.4252 44.0001C68.0252 43.6001 60.5919 45.5001 57.4252 46.5001Z" fill="white"/>
<path d="M57 45.0001C55 42.2001 49.1667 41.5001 46.5 41.5001C48.9 41.5001 55 46 55 46C54.0407 45.4618 44.777 51.4066 43.5 55C32.7 52.6 26 35.3334 24 27.0001C22.4 23.0001 24.6667 23.6667 26 24.5001C28 26.5001 36.5 27.6667 40.5 28.0001C57.7 28.8001 65.5 35 69 42.5001C66.2 41.7001 59.8333 43.8334 57 45.0001Z" fill="white"/>
</svg>
