<svg width="222" height="205" viewBox="0 0 222 205" fill="none" xmlns="http://www.w3.org/2000/svg">
<path d="M124.191 63.5378C122.228 61.8816 120.784 61.2844 119.963 61.0125C119.121 60.7459 118.842 60.8208 118.842 60.8208C118.842 60.8208 119.062 61.0828 119.768 61.6423C120.474 62.2018 121.646 63.0643 123.371 64.5491C125.243 66.1867 127.368 68.2913 128.01 68.6113C128.01 68.6113 127.959 68.2613 127.479 67.4273C127.019 66.5879 126.139 65.2193 124.191 63.5378Z" fill="#8AC224"/>
<path d="M78.896 94.4132C79.3499 95.4682 83.423 97.7355 84.6484 97.2788C84.2252 96.2584 79.9136 93.8197 78.896 94.4132Z" fill="#8AC224"/>
<path d="M162.907 153.816C160.166 153.887 159.722 154.627 159.722 154.627C159.722 154.627 160.443 155.161 163.013 155.093C165.754 155.022 166.388 154.274 166.388 154.274C166.388 154.274 165.662 153.72 162.907 153.816Z" fill="#8AC224"/>
<path d="M99.456 76.1353C100.695 77.9641 109.455 84.7088 111.723 85.1919C110.551 83.4523 101.302 76.2396 99.456 76.1353Z" fill="#8AC224"/>
<path d="M76.9788 61.4699C77.6113 62.7124 82.8518 66.143 84.3624 65.9521C83.7606 64.7442 78.2402 61.0677 76.9788 61.4699Z" fill="#8AC224"/>
<path d="M52.9618 91.6717C53.8355 93.256 60.6678 98.6347 62.5661 98.8534C61.7591 97.3582 54.5497 91.6099 52.9618 91.6717Z" fill="#8AC224"/>
<path d="M62.9216 129.009C62.1542 128.38 61.8719 128.285 61.8719 128.285C62.7583 131.513 70.0499 137.089 72.9288 136.896C72.9288 136.896 72.6437 136.63 71.7258 135.999C64.2573 130.641 65.4012 130.997 62.9216 129.009Z" fill="#8AC224"/>
<path d="M154.822 166.039C150.101 166.384 141.862 166.131 141.862 166.131C149.257 168.899 163.385 167.017 168.379 163.54C166.854 163.756 162.095 165.395 154.822 166.039Z" fill="#8AC224"/>
<path d="M92.9268 109.331C92.764 110.08 92.7473 110.577 92.717 110.863C92.712 111.164 92.7188 111.269 92.7188 111.269C92.7188 111.269 92.7918 111.143 92.9419 110.824C93.0919 110.506 93.299 110.001 93.6175 109.274C94.2747 107.815 95.2661 105.367 97.5648 101.97C100.197 98.1411 104.748 93.6486 104.748 93.6486C103.09 94.3281 99.4103 96.9614 96.4512 101.327C93.9241 105.149 93.2578 107.852 92.9268 109.331Z" fill="#8AC224"/>
<path d="M179.41 85.986C181.397 86.6945 184.029 87.6577 187.23 89.303C190.39 90.9591 194.344 93.2585 197.653 97.4634C199.37 99.7202 200.497 102.092 201.017 104.349C201.621 106.604 201.651 108.714 201.532 110.586C201.229 114.325 200.123 117.061 199.132 118.952C198.127 120.869 197.213 122.012 196.659 122.738C196.074 123.429 195.834 123.729 195.834 123.729C195.834 123.729 196.11 123.484 196.822 122.865C197.477 122.198 198.537 121.122 199.713 119.203C200.874 117.309 202.169 114.48 202.609 110.533C202.787 108.56 202.779 106.294 202.151 103.874C201.604 101.432 200.403 98.8657 198.549 96.496C196.669 94.1116 194.54 92.393 192.552 91.043C190.559 89.6731 188.639 88.733 186.951 87.9443C183.533 86.443 180.883 85.6555 178.935 85.172C176.987 84.6885 175.75 84.4637 174.991 84.3461C174.232 84.2286 173.971 84.2129 173.971 84.2129C173.971 84.2129 174.324 84.3323 175.191 84.6134C176.053 84.8746 177.423 85.2776 179.41 85.986Z" fill="#8AC224"/>
<path d="M128.975 163.143C125.801 162.475 123.972 161.959 122.881 161.717C122.337 161.606 121.995 161.526 121.754 161.505C121.533 161.479 121.453 161.5 121.453 161.5C121.453 161.5 121.54 161.584 121.728 161.726C121.941 161.883 122.261 162.118 122.812 162.42C123.87 163.013 125.718 163.845 128.777 164.48C132.8 165.284 136.161 165.132 137.047 164.767C136.204 164.415 132.163 163.786 128.975 163.143Z" fill="#8AC224"/>
<path d="M123.632 158.779C118.542 157.105 112.18 154.039 112.18 154.039C113.22 155.129 116.681 157.903 123.319 160.082C130.076 162.229 135.169 162.234 136.493 161.986C136.473 161.991 128.712 160.413 123.632 158.779Z" fill="#8AC224"/>
<path d="M130.281 155.885C116.84 154.267 110.403 149.402 109.197 148.977C112.35 152.518 120.446 156.466 130.265 157.023C132.633 157.159 136.271 157.082 138.245 156.468C138.245 156.468 133.992 156.324 130.281 155.885Z" fill="#8AC224"/>
<path d="M139.81 152.967C137.649 152.648 131.251 152.8 122.664 150.373C119.35 149.422 116.806 148.392 114.802 147.538C114.413 147.364 107.902 144.381 107.554 144.282C117.222 151.939 131.887 154.855 139.81 152.967Z" fill="#8AC224"/>
<path d="M144.72 149.256C136.508 149.745 129.578 149.591 120.723 146.722C105.145 141.676 103.207 138.195 100.645 136.378C108.644 146.75 131.895 153.206 144.72 149.256Z" fill="#8AC224"/>
<path d="M180.263 157.36C175.653 159.237 171.428 160.711 170.696 161.335C175.158 161.38 187.415 156.427 190.281 152.75C190.261 152.755 183.11 156.169 180.263 157.36Z" fill="#8AC224"/>
<path d="M172.225 156.818C178.238 156.662 192.312 150.345 195.085 147.441L172.225 156.818Z" fill="#8AC224"/>
<path d="M184.252 148.291C179.821 150.355 171.151 153.449 171.151 153.449C179.663 153.2 193.325 145.903 197.172 140.7C195.602 141.549 191.477 144.836 184.252 148.291Z" fill="#8AC224"/>
<path d="M185.722 143.318C178.918 146.746 169.096 150.169 169.096 150.169C182.684 148.347 197.05 139.128 201.783 132.918C198.875 135.002 193.689 139.28 185.722 143.318Z" fill="#8AC224"/>
<path d="M168.022 146.8C182.75 145.079 197.399 135.72 204.534 125.144C204.93 124.546 205.082 124.312 205.082 124.312C205.082 124.312 204.88 124.516 204.372 125.016C186.739 143.282 172.07 144.902 168.022 146.8Z" fill="#8AC224"/>
<path d="M129.878 59.5318C116.828 44.7591 89.2431 42.0102 80.013 47.2431C103.649 44.6751 114.347 50.7506 129.878 59.5318Z" fill="#8AC224"/>
<path d="M75.4401 49.2603C41.2391 55.7503 33.8775 99.6528 46.445 120.288C39.7523 100.261 42.3562 80.4378 51.5257 66.8352C60.4785 53.4618 72.7891 50.7835 75.4401 49.2603Z" fill="#8AC224"/>
<path d="M118.216 94.1697C109.164 99.5901 100.913 108.476 103.527 119.349C111.898 154.265 205.317 142.754 195.379 106.781C189.78 86.5248 151.42 74.2982 118.216 94.1697ZM151.997 85.0753C185.818 84.5915 198.831 105.214 193.047 118.915C190.111 125.842 182.537 129.754 175.839 132.618C152.239 142.664 118.101 141.008 107.602 124.418C93.9725 102.933 131.391 85.3768 151.997 85.0753Z" fill="#8AC224"/>
<path d="M121.878 120.292C130.125 130.233 148.96 135.22 165.198 128.195C190.482 117.248 186.139 89.7028 152.173 91.402C137.834 92.0993 108.626 104.29 121.878 120.292ZM122.858 105.589C132.604 92.859 161.626 87.4786 175.026 98.9272C179.186 102.476 180.536 107.676 178.939 112.811C177.379 117.85 173.319 122.018 168.505 124.891C143.886 139.596 111.386 120.579 122.858 105.589Z" fill="#8AC224"/>
<path d="M166.545 114.699C177.195 97.0414 132.913 93.9318 134.519 111.985C135.738 125.713 161.58 122.918 166.545 114.699ZM166.514 111.07C166.646 119.228 142.471 124.893 137.08 114.914C129.061 100.077 165.603 95.056 166.514 111.07Z" fill="#8AC224"/>
<path d="M153.253 110.602C154.485 108.496 150.654 108.09 149.519 109.121C146.987 111.49 151.947 112.835 153.253 110.602Z" fill="#8AC224"/>
<path d="M205.242 99.602C195.481 83.6913 169.683 76.9124 150.891 77.7548C149.301 74.1375 148.135 69.4655 145.889 65.3179C145.336 64.2896 144.81 63.4464 145.256 62.2359C146.887 57.8627 136.924 62.757 162.592 49.8893C169.983 46.1761 169.764 45.6785 169.692 44.6923C169.506 41.3621 166.853 38.8855 165.587 38.7113C164.366 38.5464 160.061 40.3632 159.011 40.8369C160.856 39.9789 162.528 38.6325 163.993 37.2344C165.513 35.8003 166.318 35.6916 167.323 33.1334C167.764 31.9881 166.652 26.6385 163.269 25.1917C161.043 24.2266 160.519 26.1853 147.74 37.974C154.549 28.2556 157.534 24.2255 155.503 22.7158C154.3 21.8188 152.637 21.2804 151.149 21.3154C151.387 20.8453 153.558 16.7336 153.325 16.2614C154.703 13.2608 147.232 9.572 144.973 10.2416C142.44 11.006 141.229 15.3521 139.955 17.3835C137.705 20.9601 135.429 24.5222 133.209 28.1334C133.705 25.7542 134.066 23.3471 134.251 20.923C134.342 19.508 136.232 12.9901 128.757 14.394C124.805 15.1321 124.387 15.3296 122.617 23.3342C122.075 17.6392 122.33 17.3141 121.502 16.9371C120.502 16.4777 119.09 16.5566 118.046 16.8147C116.958 17.0636 115.071 17.8472 114.528 18.934C115.978 28.8142 114.783 37.3705 114.825 41.0389C114.008 41.3434 112.111 43.285 111.888 44.0507C89.1577 30.9947 12.3286 43.901 45.0354 136.903C48.7311 147.422 52.438 163.971 41.0651 179.49C40.6731 180.023 36.7277 183.262 36.3228 183.029C38.783 184.466 42.705 182.816 44.6731 181.219C49.4803 177.364 50.032 172.317 56.9849 167.288C57.0754 167.306 57.1407 167.31 57.2312 167.329L57.2576 167.108C63.9699 162.378 72.3755 161.174 81.0176 161.811C91.3664 162.589 106.927 157.671 107.724 157.051C107.884 157.008 108.018 156.951 108.08 156.784C134.576 184.213 189.193 176.552 205.182 140.414C209.233 131.264 210.87 121.006 209.39 111.091C208.757 106.811 207.329 103 205.242 99.602ZM179.466 83.4044C187.282 86.145 194.948 90.1663 200.826 96.2929C206.488 102.178 206.067 112.26 201.942 118.585C184.479 150.732 105.134 155.927 96.3237 121.77C90.1026 97.5942 135.998 68.161 179.466 83.4044ZM165.026 39.6531C166.962 41.2094 168.122 42.824 168.296 45.3874C163.764 46.8371 159.408 49.5018 155.157 51.6033C151.056 53.6222 146.495 55.4432 142.624 57.9995C141.188 56.7154 142.199 57.7711 140.962 56.3483C152.725 50.351 159.362 46.2194 159.362 46.2194C159.362 46.2194 154.05 48.3488 145.13 52.6642C147.819 50.4035 150.461 48.0483 153.094 45.7384C153.974 45.3527 163.852 40.4598 165.026 39.6531ZM162.901 25.9748C166.512 28.4303 165.688 31.0256 166.269 32.4744C163.26 34.4999 146.101 49.9011 140.96 54.7444C140.716 54.8738 140.488 54.9779 140.224 55.1126L140.328 55.3415C140.279 55.3974 140.21 55.4587 140.155 55.4947C139.849 55.149 139.508 54.834 139.181 54.4936C148.584 46.3907 153.703 41.1468 153.703 41.1468C153.703 41.1468 147.7 45.4081 138.176 53.4579C138.059 53.3396 137.922 53.2266 137.804 53.1083C148.58 43.5036 154.517 37.3988 154.517 37.3988C154.517 37.3988 147.667 42.5716 136.73 52.1339C136.425 51.8733 136.135 51.5875 135.83 51.327C135.888 51.2258 135.947 51.1245 136.005 51.0233C139.974 48.2699 160.227 28.7666 162.901 25.9748ZM155.084 24.5825C149.564 31.6878 149.253 34.916 140.386 44.4585C145.905 35.2781 148.73 29.772 148.73 29.772C148.73 29.772 145.426 34.2085 140.169 42.2917C147.701 25.5338 142.989 36.2093 150.619 22.2917C153.32 23.1085 154.158 23.761 155.084 24.5825ZM145.416 11.2567C145.518 11.0795 147.906 12.0869 148.174 12.2077C150.901 13.445 152.277 15.3868 151.781 16.8888C151.557 17.5693 150.806 18.1984 150.365 18.7873C146.113 24.3976 135.767 44.9472 134.324 50.019C133.379 49.288 132.552 48.6754 132.319 48.5239C137.265 37.1226 142.067 28.22 148.185 17.9167C141.744 26.852 136.172 36.2388 131.107 47.6722C130.346 47.1486 129.571 46.6504 128.77 46.1376C133.925 36.1563 137.91 28.9916 142.063 21.4181C138.752 25.9851 132.917 35.1858 127.545 45.3963C127.013 45.0894 126.462 44.788 125.916 44.5064C133.457 34.2494 139.075 22.2403 145.416 11.2567ZM125.765 16.1586C128.33 15.1932 130.684 15.1185 133.127 16.0899C132.431 21.7957 132.733 28.4321 128.532 36.1468C129.786 24.8577 130.076 18.2765 130.076 18.2765C130.076 18.2765 128.444 26.1585 126.682 39.7016C125.983 41.0868 125.325 42.4613 124.692 43.8503C124.545 43.7826 124.404 43.7349 124.257 43.6672C126.448 35.9563 127.163 28.9619 126.847 21.7944C126.168 28.8433 125.238 35.1897 122.91 43.1084C121.81 42.6758 120.666 42.3191 119.554 42.0822C119.609 41.4898 122.646 29.8299 122.744 29.3971C122.833 29.3305 125.458 20.284 125.765 16.1586ZM115.37 19.2006C117.87 17.354 118.915 17.5019 121.036 18.1529C120.876 19.95 121.428 26.5622 121.671 27.8663C121.145 30.2962 120.516 32.818 119.923 35.3944C120.009 29.8091 119.508 24.4241 119.003 21.8211C119.091 27.9799 118.837 34.9364 118.163 41.5993C117.651 41.2871 117.12 40.9803 116.591 40.8438C117.887 33.5439 116.174 20.2046 115.37 19.2006ZM114.46 44.0676C115.334 40.6243 127.672 46.9881 130.58 48.8189C132.13 49.4945 145.771 59.7661 143.339 63.3057C136.815 58.3579 126.567 48.9315 114.368 44.2846C114.412 44.2087 114.436 44.1381 114.46 44.0676ZM104.747 154.404C103.474 155.002 102.165 155.546 100.825 156.054C91.532 153.068 84.5599 149.802 76.908 145.755C83.1656 150.346 89.7642 154.055 97.9553 157.08C97.0279 157.371 96.0805 157.668 95.1424 157.919C85.4744 156.488 77.6654 153.532 69.3501 149.085C75.6943 153.76 82.371 157.041 90.5181 158.944C81.0336 160.673 72.3021 157.707 64.3329 152.077C67.2438 155.276 71.3255 158.054 76.1407 159.738C74.4302 159.661 70.9176 159.725 64.3604 157.289C65.0694 158.019 66.2325 158.927 67.6284 159.665C65.596 159.825 63.7929 160.201 61.7534 161.133C60.2757 160.887 58.61 160.499 57.4209 160.133C57.8686 160.526 59.0542 161.278 60.3566 161.828C59.6517 162.231 58.9574 162.673 58.3137 163.145C55.9947 162.954 54.4766 162.398 53.3167 161.981C54.291 162.982 55.6922 163.741 57.0278 164.174C56.4547 164.67 55.9069 165.181 55.3644 165.711C53.6125 165.56 52.0111 165.412 51.1884 165.375C51.716 165.747 52.8987 166.329 54.3847 166.765C50.414 171.188 48.9213 175.118 45.4513 178.615C43.3122 180.771 41.0047 181.261 38.5479 182.711C49.1 176.503 51.4657 161.301 49.7698 148.984C51.5997 151.98 54.4174 154.113 55.4197 154.101C54.8943 153.258 49.6646 147.792 48.9871 144.465C50.1937 146.174 52.3047 148.304 53.3124 148.312C53.3124 148.312 49.3311 141.678 47.6065 138.674C45.3495 130.251 42.2674 121.942 40.6506 113.433C29.0717 52.3359 77.5731 33.0291 112.091 45.3655C114.834 46.3419 125.839 52.7632 127.375 53.785C136.864 60.0563 144.186 66.8653 148.001 77.9087C147.659 77.8293 146.767 77.8543 145.461 78.0116C141.867 70.8241 136.979 65.4377 130.706 61.1072C136.3 66.1759 140.511 71.2729 143.976 78.217C143.381 78.3122 142.746 78.4182 142.077 78.5547C138.726 73.6337 134.634 69.9382 132.419 68.4567C135.207 71.5175 138.11 75.1679 140.553 78.856C139.884 78.9926 139.18 79.1598 138.456 79.3324C134.223 75.5892 131.411 73.7969 131.411 73.7969C131.411 73.7969 133.205 76.1827 136.834 79.7457C135.816 80.0184 134.758 80.3019 133.671 80.636C129.519 78.1545 126.831 77.1421 126.831 77.1421C126.831 77.1421 128.583 78.8118 131.956 81.1811C131.029 81.4724 130.092 81.8089 129.135 82.1508C125.353 80.4902 122.85 80.0912 122.85 80.0912C122.85 80.0912 124.365 81.3539 127.267 82.8439C126.281 83.2364 125.276 83.6343 124.3 84.0667C121.531 82.4341 119.603 81.9453 119.603 81.9453C119.603 81.9453 120.642 83.1859 122.793 84.7487C98.8233 96.049 93.9244 107.866 93.2317 118.534C90.7904 117.327 89.1223 117.089 89.1223 117.089C89.1223 117.089 90.3742 118.807 93.1517 120.63C93.1422 121.553 93.1526 122.47 93.2029 123.376C89.282 121.517 86.7363 120.959 86.7363 120.959C86.7363 120.959 88.9578 123.102 93.3906 125.593C93.5319 126.839 93.713 128.074 93.9395 129.319C88.9909 126.259 85.7814 124.98 85.7814 124.98C85.7814 124.98 88.724 127.978 94.515 131.945C94.7464 132.889 94.9978 133.827 95.2837 134.734C92.5879 133.296 87.388 130.496 84.2973 129.421C87.3735 131.72 92.1361 135.043 96.16 137.366C96.9226 139.494 97.8249 141.584 98.811 143.587C94.0642 141.201 91.6467 139.923 83.9763 135.967C85.5939 137.374 91.5828 142.08 100.369 146.528C101.531 148.549 102.797 150.477 104.15 152.254C94.4569 149.054 87.0635 145.173 79.111 140.244C86.6177 146.384 94.7016 151.085 104.747 154.404ZM207.302 111.522C216.301 178.958 104.372 195.879 94.8105 124.186L94.8397 124.136L94.8144 124.121C94.6479 122.861 94.5013 121.595 94.4092 120.293C101.771 163.096 205.563 151.18 206.72 107.913C206.931 109.097 207.146 110.302 207.302 111.522Z" fill="#8AC224"/>
</svg>
