<svg width="219" height="235" viewBox="0 0 219 235" fill="none" xmlns="http://www.w3.org/2000/svg">
<path d="M143.713 56.137C134.475 52.2392 124.876 55.0019 117.818 61.1937C111.141 59.5662 101.748 61.9801 97.3966 67.7818C82.1798 50.9656 81.7881 36.198 93.378 35.1164C99.3113 34.5723 108.728 37.4996 108.229 28.1998C107.418 13.3683 99.1621 18.8997 92.8063 21.1412C83.6994 24.3592 69.2921 28.7758 68.0692 44.5011C66.8976 59.4318 78.8037 71.5295 78.881 83.3677C71.4203 81.0453 60.9236 88.967 58.8041 95.8516C45.8164 104.141 37.6531 122.419 45.0991 145.431C63.9407 203.682 142.273 229.779 146.926 197.692C146.737 198.999 166.582 199.45 170.485 186.512C176.19 184.646 180.391 178.982 182.825 173.038C199.451 165.53 191.097 139.932 187.83 127.692C183.434 111.156 175.107 69.3504 143.713 56.137ZM115.641 63.3426C113.736 65.3863 112.075 67.7219 110.733 70.2561C109.696 71.1098 108.745 72.0673 107.886 73.0983C108.269 69.9192 109.316 67.5808 110.569 65.2004C108.209 66.7667 106.013 70.0744 105.631 74.0944C105.355 74.1011 105.097 74.0968 104.859 74.0814C104.223 72.2299 104.02 70.8174 103.83 69.4733C103.341 70.3931 103 71.7888 103.004 73.3419C102.042 72.6477 100.798 71.3768 98.6544 69.1211C102.528 66.2469 106.58 62.7091 115.641 63.3426ZM102.618 19.276C105.453 22.5093 107.838 28.2727 105.385 32.2389C103.288 29.4462 99.5355 27.099 102.618 19.276ZM78.778 85.4417C78.668 86.5761 78.4594 87.7166 78.1714 88.8518C75.6461 87.6579 72.9763 87.8478 71.2653 88.6826C73.485 88.9056 75.5304 89.3566 77.6188 90.8539C77.5673 90.9856 77.546 91.1254 77.4946 91.2571C75.3183 90.9326 64.7041 92.7767 61.6073 94.2587C67.7579 85.3017 73.646 86.3136 78.778 85.4417ZM68.2748 178.638C40.2233 149.087 31.5942 105.212 71.9421 93.0348C72.2488 93.0362 72.5556 93.0376 72.8735 93.0581C55.1026 99.9521 43.4874 125.502 61.2846 157.123C63.256 160.626 77.2018 185.443 89.3854 195.902C83.3444 190.694 73.8091 184.469 68.2748 178.638ZM125.897 209.322C110.186 209.979 86.9052 193.152 74.5771 174.846C65.9108 162 44.771 133.865 59.9227 108.389C67.8941 94.9894 75.2697 97.871 79.997 92.2347C70.7977 119.629 110.901 184.806 143.357 196.59C139.696 204.161 131.456 207.643 124.197 206.377C128.783 208.269 137.181 207.755 142.903 201.059C139.77 206.541 132.026 209.073 125.897 209.322ZM138.346 190.737C115.215 178.056 92.8393 144.821 85.6748 118.587C82.2357 105.961 77.9488 89.9238 92.0914 81.4271C93.0366 80.8559 89.7761 81.2593 86.3544 83.5919C84.4838 73.197 80.7554 64.4868 75.249 56.3186C79.7671 65.8224 82.7634 74.3688 84.4192 85.1426C83.53 85.9875 82.7534 86.8949 82.0732 87.9251C84.0421 79.1894 76.5251 66.6996 73.9968 60.5095C67.8106 45.4664 72.821 32.6798 79.8934 28.367C85.7065 24.8323 93.6881 24.7886 99.4902 21.2347C98.2215 24.8232 98.7711 29.5293 101.161 32.255C93.6583 32.8636 79.8268 31.8734 84.2027 50.0527C86.5948 60.07 96.5599 71.8093 102.871 75.5858C101.518 75.6275 100.15 75.9075 98.8046 76.4038C90.3655 67.8377 69.9243 40.9566 87.58 32.8031C90.4694 31.4918 93.4223 30.9089 96.8571 30.2774C93.5333 30.6154 90.4508 31.0181 87.3363 32.2043C69.8641 39.1299 84.2228 64.3974 96.7243 77.3498C96.0932 77.7142 95.465 78.1279 94.8207 78.6019C90.4216 73.0583 87.1116 70.3284 87.1116 70.3284C87.1116 70.3284 88.9816 74.4507 93.4867 80.443L93.7324 80.2502C93.9804 80.5915 94.5264 80.7862 94.9795 80.4227C120.823 60.6571 167.529 154.407 168.294 182.32C168.507 189.49 157.529 201.26 138.346 190.737ZM171.061 183.094C171.095 182.667 171.087 182.212 171.088 181.727C175.671 178.138 178.221 173.147 178.695 168.844C176.961 172.599 174.843 176.041 170.948 179.233C168.612 154.826 139.014 87.3072 108.293 76.4081C117.856 64.9707 133.456 63.7673 145.658 71.5633C158.178 79.5578 164.485 93.4856 169.259 106.922C174.138 120.628 178.11 134.706 180.869 149.025C182.668 158.237 186.153 171.958 171.061 183.094ZM183.993 169.763C186.679 160.766 184.496 155.219 182.682 145.938C181.272 138.771 179.6 131.678 177.654 124.642C171.444 102.269 162.843 71.5607 136.838 64.8999C129.906 63.1394 121.582 63.916 114.947 67.4407C135.682 41.5212 165.064 63.5718 179.516 108.522C189.558 139.827 195.193 161.512 183.993 169.763Z" fill="#8AC224"/>
<path d="M153.483 192.222C147.258 192.349 141.311 187.877 136.752 183.956C135.206 182.604 133.491 181.223 131.832 179.631C130.993 178.84 130.124 178.042 129.214 177.216C128.342 176.368 127.467 175.471 126.542 174.576C100.084 149.155 88.4331 113.118 87.2353 110.47C94.0034 136.856 108.991 160.74 125.432 176.186C129.094 179.835 132.657 182.827 135.852 185.445C150.612 197.45 161.09 193.517 164.261 186.51C164.261 186.51 164.152 186.675 163.918 187.065C162.309 189.753 158.466 192.151 153.483 192.222Z" fill="#8AC224"/>
<path d="M138.542 198.275C94.3836 168.563 89.7669 144.887 80.9406 128.716C89.6837 160.643 114.72 187.931 138.542 198.275Z" fill="#8AC224"/>
<path d="M128.995 100.384C132.366 107.414 137.269 116.084 145.637 133.36C153.721 150.189 160.234 165.401 162.004 168.51C154.229 142.501 134.519 106.375 128.995 100.384Z" fill="#8AC224"/>
<path d="M140.632 102.872C167.49 146.831 168.393 162.527 172.19 172.549C167.579 139.741 148.003 109.632 140.632 102.872Z" fill="#8AC224"/>
<path d="M160.311 128.918C161.638 132.41 163.972 134.378 170.776 154.598C170.967 155.15 171.579 157.092 171.858 157.62C171.708 148.526 163.842 131.546 160.311 128.918Z" fill="#8AC224"/>
<path d="M119.696 189.087C118.83 188.338 119.424 188.836 116.543 186.496C99.8543 172.519 94.8404 162.995 92.7475 161.093C98.7976 173.869 112.641 186.097 119.696 189.087Z" fill="#8AC224"/>
<path d="M84.4963 183.502C93.5324 195.752 110.189 204.419 119.231 205.548C92.2303 193.674 89.0534 186.404 84.4963 183.502Z" fill="#8AC224"/>
<path d="M140.279 183.883C148.706 191.589 157.232 190.721 160.587 187.611C159.529 187.941 153.997 190.549 146.529 186.624C143.994 185.282 142.216 183.836 140.792 182.694C139.406 181.531 138.364 180.654 137.594 180.027C136.074 178.763 135.555 178.527 135.555 178.527C135.555 178.527 135.95 179.166 137.313 180.776C137.985 181.587 138.929 182.648 140.279 183.883Z" fill="#8AC224"/>
</svg>
